<svg width="20" height="20" viewBox="0 0 20 20" fill="none" xmlns="http://www.w3.org/2000/svg">
<path d="M5.8806 12.9736C6.13441 13.1547 6.43847 13.2519 6.75024 13.2516C7.06201 13.2513 7.36589 13.1536 7.61935 12.972C7.87272 12.7826 8.0653 12.5234 8.17348 12.2261L8.73735 10.4923C8.87261 10.0838 9.10142 9.71252 9.40555 9.4081C9.70968 9.10369 10.0807 8.87453 10.4891 8.7389L12.2539 8.16527C12.5498 8.05912 12.8049 7.86265 12.9831 7.60362C13.1613 7.34459 13.2536 7.03611 13.247 6.72177C13.2404 6.40742 13.1351 6.10312 12.9461 5.85185C12.7571 5.60059 12.4939 5.41507 12.1937 5.32152L10.4566 4.75927C10.0478 4.62424 9.67622 4.39552 9.37151 4.09137C9.0668 3.78723 8.8374 3.41607 8.7016 3.00752L8.12798 1.24602C8.02387 0.955137 7.83221 0.703647 7.57933 0.526141C7.32646 0.348636 7.0248 0.253834 6.71585 0.254774C6.40248 0.253441 6.0966 0.350617 5.84146 0.532571C5.58631 0.714526 5.3948 0.972058 5.29398 1.26877L4.71548 3.04002C4.57963 3.43646 4.35587 3.79704 4.06096 4.09477C3.76604 4.3925 3.40761 4.61967 3.01248 4.75927L1.25098 5.32965C0.9567 5.43364 0.702197 5.62685 0.522932 5.88234C0.343667 6.13784 0.248571 6.44289 0.250896 6.75499C0.253221 7.06709 0.352852 7.3707 0.535903 7.62349C0.718955 7.87628 0.976309 8.06568 1.2721 8.16527L3.00598 8.72915C3.41534 8.86592 3.78721 9.09617 4.09212 9.40164C4.39703 9.70711 4.62659 10.0794 4.7626 10.489L5.3346 12.244C5.43698 12.5365 5.62873 12.7916 5.88223 12.972M3.51135 7.17727L2.12198 6.74665L3.52598 6.29002C4.16717 6.06911 4.74843 5.70255 5.2241 5.21915C5.6986 4.73165 6.0561 4.14665 6.2706 3.50315L6.70123 2.10727L7.15623 3.50802C7.37172 4.15824 7.73646 4.74896 8.22124 5.2329C8.70603 5.71684 9.29739 6.08054 9.94798 6.2949L11.378 6.73202L9.98048 7.18702C9.32936 7.40187 8.73766 7.76632 8.25284 8.25114C7.76802 8.73596 7.40357 9.32766 7.18873 9.97877L6.7581 11.3714L6.30473 9.97552C6.09037 9.32333 5.72597 8.73054 5.24081 8.24482C4.75566 7.7591 4.16329 7.39239 3.51135 7.17727ZM14.1177 19.5078C14.3384 19.6647 14.6026 19.7488 14.8734 19.7483C15.1462 19.7455 15.4115 19.658 15.6324 19.4979C15.8534 19.3378 16.0191 19.113 16.1067 18.8545L16.5097 17.6163C16.5958 17.3595 16.7421 17.1239 16.9322 16.9321C17.1224 16.7404 17.358 16.5958 17.6147 16.5113L18.8692 16.1018C19.1287 16.0128 19.3534 15.844 19.5111 15.6196C19.6689 15.3952 19.7516 15.1267 19.7474 14.8524C19.7433 14.5781 19.6525 14.3122 19.488 14.0927C19.3236 13.8731 19.0939 13.7112 18.8319 13.6301L17.5903 13.2255C17.3337 13.1395 17.1004 12.9953 16.9087 12.8042C16.717 12.6131 16.5721 12.3802 16.4854 12.1238L16.0759 10.866C15.9878 10.6077 15.8206 10.3837 15.5981 10.2257C15.3755 10.0677 15.1089 9.98375 14.836 9.98572C14.5631 9.9877 14.2978 10.0755 14.0776 10.2367C13.8573 10.3979 13.6934 10.6243 13.6091 10.8839L13.2077 12.1221C13.1249 12.3767 12.9845 12.6087 12.7973 12.8001C12.6102 12.9915 12.3814 13.1371 12.1287 13.2255L10.8677 13.6366C10.6768 13.703 10.5041 13.813 10.3631 13.9578C10.2222 14.1026 10.1169 14.2783 10.0557 14.4708C9.99449 14.6634 9.97903 14.8677 10.0105 15.0673C10.0421 15.2669 10.1197 15.4564 10.2372 15.6208C10.3981 15.8483 10.6256 16.0189 10.8872 16.1083L12.1271 16.5096C12.3846 16.5965 12.6185 16.7419 12.8103 16.9345C13.002 17.1271 13.1464 17.3616 13.2321 17.6195L13.6432 18.8773C13.7322 19.1315 13.8981 19.3518 14.1177 19.5078ZM12.6325 14.9691L12.3432 14.8733L12.6422 14.7693C13.135 14.5987 13.5819 14.3169 13.9482 13.9458C14.3146 13.5746 14.5905 13.1241 14.7547 12.6291L14.849 12.3399L14.9465 12.634C15.1124 13.1321 15.392 13.5846 15.7632 13.9558C16.1344 14.327 16.5869 14.6066 17.085 14.7725L17.4019 14.8749L17.1094 14.9708C16.6101 15.1373 16.1567 15.4181 15.7852 15.7907C15.4136 16.1634 15.1342 16.6177 14.9692 17.1174L14.8734 17.4115L14.7791 17.1174C14.615 16.6162 14.3353 16.1607 13.9627 15.7875C13.5901 15.4144 13.135 15.134 12.6341 14.9691" fill="#9D9D9D"/>
</svg>
