<svg width="120" height="42" viewBox="0 0 120 42" fill="none" xmlns="http://www.w3.org/2000/svg">
<path d="M117.146 12.2567C116.305 12.2567 115.674 12.0664 115.253 11.6859C114.833 11.2853 114.622 10.7345 114.622 10.0336C114.622 9.33259 114.893 8.75178 115.434 8.29114C115.994 7.81046 116.685 7.57013 117.506 7.57013C118.248 7.57013 118.848 7.75038 119.309 8.11088C119.77 8.47139 120 8.9821 120 9.64302C120 10.4441 119.74 11.085 119.219 11.5657C118.698 12.0264 118.007 12.2567 117.146 12.2567ZM114.262 28.3892C113.621 28.3892 113.18 28.259 112.94 27.9987C112.7 27.7383 112.58 27.3277 112.58 26.7669C112.58 26.6067 112.6 26.3263 112.64 25.9258C112.96 22.2606 113.491 18.926 114.232 15.9218C114.392 15.3009 114.652 14.8703 115.013 14.63C115.394 14.3696 115.994 14.2394 116.816 14.2394C117.677 14.2394 118.107 14.5899 118.107 15.2909C118.107 15.391 118.087 15.5813 118.047 15.8617C117.146 20.1477 116.605 23.7427 116.425 26.6468C116.385 27.2877 116.195 27.7383 115.854 27.9987C115.514 28.259 114.983 28.3892 114.262 28.3892Z" fill="#FF7C02"/>
<path d="M102.584 28.3893C101.342 28.3893 100.351 27.9387 99.6099 27.0375C98.8688 26.1362 98.4983 24.9545 98.4983 23.4925C98.4983 21.8903 98.8688 20.3782 99.6099 18.9562C100.351 17.5142 101.332 16.3626 102.554 15.5014C103.796 14.6201 105.108 14.1795 106.489 14.1795C106.93 14.1795 107.221 14.2696 107.361 14.4499C107.521 14.6101 107.651 14.9105 107.751 15.3511C108.172 15.271 108.612 15.231 109.073 15.231C110.054 15.231 110.545 15.5815 110.545 16.2824C110.545 16.703 110.395 17.7044 110.095 19.2866C109.634 21.5898 109.404 23.1921 109.404 24.0933C109.404 24.3938 109.474 24.6341 109.614 24.8144C109.774 24.9946 109.974 25.0847 110.215 25.0847C110.595 25.0847 111.056 24.8444 111.597 24.3637C112.137 23.863 112.868 23.0619 113.79 21.9604C114.03 21.68 114.3 21.5398 114.601 21.5398C114.861 21.5398 115.062 21.6599 115.202 21.9003C115.362 22.1406 115.442 22.4711 115.442 22.8917C115.442 23.6928 115.252 24.3137 114.871 24.7543C114.05 25.7757 113.179 26.6369 112.258 27.3379C111.336 28.0389 110.445 28.3893 109.584 28.3893C108.923 28.3893 108.312 28.169 107.751 27.7284C107.21 27.2678 106.8 26.6469 106.52 25.8658C105.478 27.5482 104.166 28.3893 102.584 28.3893ZM103.666 25.3551C104.106 25.3551 104.527 25.0947 104.927 24.574C105.328 24.0533 105.618 23.3623 105.799 22.5011L106.91 16.9734C106.069 16.9934 105.288 17.3139 104.567 17.9347C103.866 18.5356 103.305 19.3367 102.884 20.3381C102.464 21.3395 102.254 22.401 102.254 23.5226C102.254 24.1434 102.374 24.6041 102.614 24.9045C102.874 25.2049 103.225 25.3551 103.666 25.3551Z" fill="#FF7C02"/>
<path d="M93.5392 28.3896C92.658 28.3896 91.987 28.1492 91.5264 27.6686C91.0858 27.1879 90.8655 26.557 90.8655 25.7759C90.8655 24.8747 91.1158 24.1536 91.6165 23.6129C92.1373 23.0721 92.8583 22.8018 93.7796 22.8018C94.6608 22.8018 95.3217 23.0221 95.7623 23.4627C96.223 23.8833 96.4533 24.5141 96.4533 25.3553C96.4533 26.2766 96.1929 27.0176 95.6722 27.5784C95.1515 28.1192 94.4405 28.3896 93.5392 28.3896Z" fill="#FF7C02"/>
<path d="M89.3157 18.3558C89.7563 18.3558 90.1268 18.516 90.4272 18.8365C90.7477 19.1369 90.9079 19.5174 90.9079 19.9781C90.9079 20.2384 90.8478 20.5188 90.7277 20.8192C90.4072 21.5603 89.9566 22.1811 89.3758 22.6818C88.795 23.1825 88.1541 23.4329 87.4531 23.4329C86.8923 23.4329 86.4116 23.2326 86.0111 22.832C85.6305 22.4315 85.4403 21.8907 85.4403 21.2098C85.4403 20.8292 85.4603 20.4187 85.5003 19.9781C85.5404 19.6576 85.5604 19.4373 85.5604 19.3171C85.5604 19.1569 85.5204 19.0367 85.4403 18.9566C85.3802 18.8765 85.3001 18.8365 85.1999 18.8365C84.9195 18.8365 84.539 19.1769 84.0583 19.8579C83.5777 20.5188 83.097 21.4 82.6163 22.5016C82.1356 23.6031 81.7451 24.7647 81.4447 25.9865C81.2243 26.9478 80.974 27.5887 80.6936 27.9091C80.4132 28.2296 79.9526 28.3898 79.3117 28.3898C78.5506 28.3898 78.0098 27.9892 77.6894 27.1881C77.389 26.387 77.2388 25.1052 77.2388 23.3428C77.2388 20.7391 77.6093 18.2657 78.3503 15.9224C78.5306 15.3416 78.821 14.921 79.2215 14.6606C79.6421 14.3802 80.2229 14.2401 80.964 14.2401C81.3645 14.2401 81.6449 14.2901 81.8052 14.3903C81.9654 14.4904 82.0455 14.6807 82.0455 14.9611C82.0455 15.2815 81.8953 16.0025 81.5949 17.1241C81.3946 17.9252 81.2344 18.6262 81.1142 19.227C80.994 19.8279 80.8939 20.5689 80.8138 21.4501C81.4747 19.7277 82.2157 18.3258 83.0369 17.2442C83.858 16.1627 84.6592 15.3917 85.4403 14.931C86.2214 14.4704 86.9323 14.2401 87.5732 14.2401C88.1541 14.2401 88.5947 14.4103 88.8951 14.7508C89.2156 15.0712 89.3758 15.5519 89.3758 16.1928C89.3758 16.5733 89.2656 17.2943 89.0453 18.3558H89.3157Z" fill="#FF7C02"/>
<path d="M78.5074 21.5999C78.7678 21.5999 78.9681 21.73 79.1083 21.9904C79.2685 22.2307 79.3486 22.5412 79.3486 22.9217C79.3486 23.3824 79.2785 23.7429 79.1383 24.0032C78.9981 24.2636 78.7778 24.4939 78.4774 24.6942C76.755 25.8558 75.4932 26.717 74.6921 27.2778L72.7694 28.5696C72.0083 32.7154 71.0069 35.9699 69.7652 38.3332C68.5435 40.7166 66.9813 41.9082 65.0786 41.9082C64.0572 41.9082 63.226 41.5878 62.5851 40.9469C61.9442 40.326 61.6238 39.5049 61.6238 38.4834C61.6238 37.0615 62.1846 35.5293 63.3061 33.887C64.4277 32.2648 66.5307 30.262 69.615 27.8786L69.7952 26.707C69.4548 27.2478 69.0041 27.6683 68.4433 27.9688C67.9026 28.2492 67.3618 28.3893 66.8211 28.3893C65.5793 28.3893 64.5879 27.9387 63.8469 27.0375C63.1059 26.1362 62.7353 24.9545 62.7353 23.4925C62.7353 21.8903 63.1059 20.3782 63.8469 18.9562C64.5879 17.5142 65.5693 16.3626 66.791 15.5014C68.0328 14.6201 69.3446 14.1795 70.7265 14.1795C71.1672 14.1795 71.4576 14.2696 71.5978 14.4499C71.758 14.6101 71.8882 14.9105 71.9883 15.3511C72.3688 15.271 72.8095 15.231 73.3102 15.231C73.8109 15.231 74.1613 15.3111 74.3616 15.4713C74.5819 15.6115 74.6921 15.9019 74.6921 16.3425C74.6921 16.5829 74.6821 16.7731 74.662 16.9133C74.5819 17.5342 74.3316 19.1064 73.911 21.6299C73.8309 22.1106 73.7408 22.6413 73.6406 23.2221C73.5605 23.7829 73.4704 24.3838 73.3702 25.0246C74.9124 23.823 76.3945 22.7615 77.8165 21.8402C78.0768 21.68 78.3072 21.5999 78.5074 21.5999ZM67.9026 25.3551C68.3632 25.3551 68.8038 25.0747 69.2244 24.5139C69.645 23.9532 69.9454 23.152 70.1257 22.1106L71.087 16.9734C70.2659 16.9934 69.5048 17.3139 68.8038 17.9347C68.1029 18.5356 67.5421 19.3367 67.1215 20.3381C66.7009 21.3395 66.4906 22.401 66.4906 23.5226C66.4906 24.1434 66.6108 24.6041 66.8511 24.9045C67.1115 25.2049 67.462 25.3551 67.9026 25.3551ZM65.4091 38.9942C65.9098 38.9942 66.4706 38.3933 67.0914 37.1916C67.7323 35.99 68.3432 34.0773 68.924 31.4536C67.3818 32.7755 66.2703 33.9671 65.5893 35.0286C64.9084 36.0901 64.5679 37.0214 64.5679 37.8225C64.5679 38.163 64.628 38.4434 64.7482 38.6637C64.8884 38.884 65.1087 38.9942 65.4091 38.9942Z" fill="#FF7C02"/>
<path d="M64.4252 21.5999C64.6855 21.5999 64.8858 21.73 65.026 21.9904C65.1862 22.2307 65.2663 22.5412 65.2663 22.9217C65.2663 23.3824 65.1962 23.7429 65.056 24.0032C64.9158 24.2636 64.6955 24.4939 64.3951 24.6942C62.6727 25.8558 61.4109 26.717 60.6098 27.2778L58.6871 28.5696C57.9261 32.7154 56.9247 35.9699 55.6829 38.3332C54.4612 40.7166 52.899 41.9082 50.9963 41.9082C49.9749 41.9082 49.1438 41.5878 48.5029 40.9469C47.862 40.326 47.5415 39.5049 47.5415 38.4834C47.5415 37.0615 48.1023 35.5293 49.2239 33.887C50.3454 32.2648 52.4484 30.262 55.5327 27.8786L55.713 26.707C55.3725 27.2478 54.9218 27.6683 54.3611 27.9688C53.8203 28.2492 53.2795 28.3893 52.7388 28.3893C51.497 28.3893 50.5057 27.9387 49.7646 27.0375C49.0236 26.1362 48.6531 24.9545 48.6531 23.4925C48.6531 21.8903 49.0236 20.3782 49.7646 18.9562C50.5057 17.5142 51.487 16.3626 52.7087 15.5014C53.9505 14.6201 55.2623 14.1795 56.6443 14.1795C57.0849 14.1795 57.3753 14.2696 57.5155 14.4499C57.6757 14.6101 57.8059 14.9105 57.906 15.3511C58.2866 15.271 58.7272 15.231 59.2279 15.231C59.7286 15.231 60.0791 15.3111 60.2794 15.4713C60.4997 15.6115 60.6098 15.9019 60.6098 16.3425C60.6098 16.5829 60.5998 16.7731 60.5798 16.9133C60.4997 17.5342 60.2493 19.1064 59.8287 21.6299C59.7486 22.1106 59.6585 22.6413 59.5583 23.2221C59.4782 23.7829 59.3881 24.3838 59.288 25.0246C60.8301 23.823 62.3122 22.7615 63.7342 21.8402C63.9946 21.68 64.2249 21.5999 64.4252 21.5999ZM53.8203 25.3551C54.2809 25.3551 54.7216 25.0747 55.1422 24.5139C55.5627 23.9532 55.8632 23.152 56.0434 22.1106L57.0048 16.9734C56.1836 16.9934 55.4225 17.3139 54.7216 17.9347C54.0206 18.5356 53.4598 19.3367 53.0392 20.3381C52.6186 21.3395 52.4083 22.401 52.4083 23.5226C52.4083 24.1434 52.5285 24.6041 52.7688 24.9045C53.0292 25.2049 53.3797 25.3551 53.8203 25.3551ZM51.3268 38.9942C51.8275 38.9942 52.3883 38.3933 53.0092 37.1916C53.6501 35.99 54.2609 34.0773 54.8417 31.4536C53.2996 32.7755 52.188 33.9671 51.5071 35.0286C50.8261 36.0901 50.4856 37.0214 50.4856 37.8225C50.4856 38.163 50.5457 38.4434 50.6659 38.6637C50.8061 38.884 51.0264 38.9942 51.3268 38.9942Z" fill="#FF7C02"/>
<path d="M50.8107 19.016C51.071 19.016 51.2713 19.1462 51.4115 19.4065C51.5517 19.6669 51.6218 19.9974 51.6218 20.3979C51.6218 21.3593 51.3314 21.9301 50.7506 22.1103C49.5489 22.5309 48.2271 22.7712 46.785 22.8313C46.4045 24.5137 45.6534 25.8656 44.5319 26.887C43.4103 27.8884 42.1385 28.3891 40.7165 28.3891C39.5148 28.3891 38.4834 28.0987 37.6222 27.5179C36.781 26.9371 36.1401 26.166 35.6995 25.2046C35.2589 24.2433 35.0386 23.2018 35.0386 22.0803C35.0386 20.5582 35.329 19.2063 35.9098 18.0246C36.4906 16.8229 37.2917 15.8916 38.3132 15.2307C39.3346 14.5498 40.4662 14.2093 41.7079 14.2093C43.2301 14.2093 44.4518 14.74 45.3731 15.8015C46.3144 16.843 46.8651 18.1348 47.0254 19.6769C47.9667 19.6168 49.0883 19.4166 50.3901 19.0761C50.5503 19.036 50.6905 19.016 50.8107 19.016ZM40.9569 25.2046C41.5978 25.2046 42.1485 24.9443 42.6092 24.4235C43.0899 23.9028 43.4103 23.1518 43.5705 22.1704C42.9497 21.7498 42.469 21.199 42.1285 20.5181C41.8081 19.8371 41.6478 19.1161 41.6478 18.3551C41.6478 18.0346 41.6779 17.7142 41.738 17.3937H41.5878C40.7866 17.3937 40.1157 17.7843 39.5749 18.5654C39.0542 19.3264 38.7938 20.4079 38.7938 21.8099C38.7938 22.9114 39.0041 23.7526 39.4247 24.3334C39.8653 24.9142 40.3761 25.2046 40.9569 25.2046Z" fill="#FF7C02"/>
<path d="M37.0765 21.5399C37.3369 21.5399 37.5372 21.6601 37.6774 21.9004C37.8376 22.1407 37.9177 22.4712 37.9177 22.8918C37.9177 23.6929 37.7274 24.3138 37.3469 24.7544C36.4857 25.8159 35.5444 26.6871 34.523 27.368C33.5216 28.049 32.38 28.3895 31.0982 28.3895C29.3357 28.3895 28.0239 27.5883 27.1626 25.9861C26.3215 24.3839 25.9009 22.311 25.9009 19.7674C25.9009 17.324 26.2113 14.5401 26.8322 11.4158C27.4731 8.29139 28.4044 5.60765 29.6261 3.36451C30.8678 1.12138 32.3399 -0.000183105 34.0423 -0.000183105C35.0036 -0.000183105 35.7547 0.450446 36.2954 1.3517C36.8562 2.23294 37.1366 3.50471 37.1366 5.16703C37.1366 7.55036 36.4757 10.3142 35.1538 13.4586C33.832 16.603 32.0395 19.7173 29.7763 22.8017C29.9165 23.6228 30.1468 24.2136 30.4673 24.5741C30.7877 24.9146 31.2083 25.0848 31.729 25.0848C32.5502 25.0848 33.2712 24.8545 33.8921 24.3939C34.5129 23.9132 35.3041 23.1021 36.2654 21.9605C36.5057 21.6801 36.7761 21.5399 37.0765 21.5399ZM33.3814 2.97397C32.9207 2.97397 32.4 3.80513 31.8192 5.46745C31.2384 7.12977 30.7276 9.19265 30.287 11.6561C29.8464 14.1195 29.6061 16.4828 29.566 18.746C30.988 16.4027 32.1196 14.0594 32.9608 11.7162C33.8019 9.35287 34.2225 7.19987 34.2225 5.25716C34.2225 3.73503 33.9421 2.97397 33.3814 2.97397Z" fill="#FF7C02"/>
<path d="M25.4757 9.01245C25.4757 10.7148 24.8748 12.1869 23.6732 13.4286C22.4715 14.6503 20.719 15.5316 18.4158 16.0723C19.6575 16.4128 20.5989 16.9736 21.2398 17.7547C21.8807 18.5157 22.2011 19.397 22.2011 20.3983C22.2011 21.9806 21.7004 23.3525 20.699 24.5141C19.7176 25.6757 18.2756 26.577 16.3729 27.2179C14.4703 27.8387 12.1771 28.1492 9.4933 28.1492C8.4919 28.1492 7.69077 28.1191 7.08993 28.059C7.06991 28.6198 6.82957 29.0404 6.36892 29.3208C5.90828 29.6012 5.31745 29.7414 4.59644 29.7414C3.87543 29.7414 3.37473 29.5812 3.09434 29.2607C2.83397 28.9403 2.72382 28.4696 2.76387 27.8488C2.94412 25.0448 3.29462 22.1107 3.81535 19.0465C4.33607 15.9622 4.997 12.988 5.79812 10.124C5.93832 9.6233 6.21871 9.27281 6.6393 9.07254C7.05989 8.87226 7.61066 8.77212 8.29162 8.77212C9.51333 8.77212 10.1242 9.11259 10.1242 9.79354C10.1242 10.0739 10.0641 10.3944 9.94393 10.7549C9.4232 12.3171 8.90247 14.44 8.38174 17.1238C7.86101 19.7875 7.49049 22.331 7.27019 24.7544C8.23153 24.8345 9.01263 24.8746 9.61347 24.8746C12.4174 24.8746 14.4703 24.474 15.7721 23.6729C17.0939 22.8518 17.7549 21.8103 17.7549 20.5486C17.7549 19.6673 17.3743 18.9263 16.6133 18.3255C15.8722 17.7246 14.6205 17.3942 12.858 17.3341C12.4575 17.314 12.1771 17.2139 12.0168 17.0336C11.8566 16.8534 11.7765 16.563 11.7765 16.1624C11.7765 15.5816 11.8967 15.111 12.137 14.7505C12.3773 14.39 12.818 14.1997 13.4589 14.1797C14.8808 14.1396 16.1626 13.9293 17.3042 13.5488C18.4659 13.1683 19.3771 12.6375 20.0381 11.9566C20.699 11.2556 21.0295 10.4445 21.0295 9.52317C21.0295 8.36154 20.4587 7.45027 19.3171 6.78935C18.1755 6.1084 16.423 5.76792 14.0597 5.76792C11.9167 5.76792 9.84379 6.04831 7.84099 6.6091C5.83818 7.14985 4.13579 7.84082 2.73383 8.68199C2.09293 9.06252 1.55217 9.25279 1.11156 9.25279C0.751052 9.25279 0.470659 9.13262 0.270379 8.89228C0.0901262 8.63192 0 8.31147 0 7.93094C0 7.43024 0.10014 6.99964 0.300421 6.63914C0.520729 6.27863 1.03145 5.86806 1.83257 5.40742C3.51492 4.44608 5.48769 3.69503 7.75086 3.15427C10.014 2.61352 12.3273 2.34314 14.6906 2.34314C18.3157 2.34314 21.0195 2.95399 22.8019 4.1757C24.5844 5.3974 25.4757 7.00965 25.4757 9.01245Z" fill="#FF7C02"/>
</svg>
