<svg width="14" height="11" viewBox="0 0 14 11" fill="none" xmlns="http://www.w3.org/2000/svg">
<path d="M4.7661 8.24406L2.12539 5.60335C1.9831 5.46106 1.79011 5.38112 1.58888 5.38112C1.38765 5.38112 1.19466 5.46106 1.05237 5.60335C0.910078 5.74564 0.830139 5.93863 0.830139 6.13986C0.830139 6.2395 0.849765 6.33816 0.887895 6.43022C0.926026 6.52227 0.981914 6.60592 1.05237 6.67637L4.23339 9.8574C4.53019 10.1542 5.00962 10.1542 5.30642 9.8574L13.3579 1.80591C13.5002 1.66361 13.5801 1.47063 13.5801 1.26939C13.5801 1.06816 13.5002 0.875173 13.3579 0.732882C13.2156 0.59059 13.0226 0.510651 12.8214 0.510651C12.6202 0.510651 12.4272 0.59059 12.2849 0.732882L4.7661 8.24406Z"/>
</svg>
