<svg width="17" height="18" viewBox="0 0 17 18" fill="none" xmlns="http://www.w3.org/2000/svg">
<path d="M0.5 8.11133C0.5 12.5558 4.05555 16.1113 8.5 16.1113C12.8889 16.1113 16.5 12.5558 16.5 8.11133V9.88911C16.5 14.3336 12.9444 17.8891 8.5 17.8891C4.11111 17.8891 0.5 14.3336 0.5 9.88911V8.11133Z" fill="#FF7C02"/>
<path d="M0.5 8.11133C0.5 12.5558 4.05555 16.1113 8.5 16.1113C12.8889 16.1113 16.5 12.5558 16.5 8.11133V9.88911C16.5 14.3336 12.9444 17.8891 8.5 17.8891C4.11111 17.8891 0.5 14.3336 0.5 9.88911V8.11133Z" fill="#FF7C02"/>
<path d="M8.49997 16.1113C6.88886 16.1113 5.33331 15.6113 4.11108 14.778V16.5558C5.38886 17.3891 6.88886 17.8891 8.49997 17.8891C12.8889 17.8891 16.5 14.3336 16.5 9.88911V8.11133C16.5 12.5002 12.8889 16.1113 8.49997 16.1113Z" fill="#EF7B56" fill-opacity="0.376471"/>
<path d="M9.88892 15.9446V17.7223C13.6111 17.0557 16.5 13.7779 16.5 9.83344V8.05566C16.5 12.0557 13.6667 15.2779 9.88892 15.9446Z" fill="#FF7C02"/>
<path d="M14.3889 13.5002V15.278C15.7222 13.8336 16.5 11.9447 16.5 9.88911V8.11133C16.5 10.1669 15.6667 12.0558 14.3889 13.5002Z" fill="#EF7B56" fill-opacity="0.376471"/>
<path d="M16.5 8.11133C16.5 12.5558 12.9444 16.1113 8.5 16.1113C4.5 16.1113 1.22222 13.2224 0.611106 9.38911C-0.166672 4.61133 3.49999 0.111328 8.5 0.111328C11.8889 0.111328 14.8333 2.22244 15.9444 5.278C16.3333 6.11133 16.5 7.11133 16.5 8.11133Z" fill="#F9CF6B"/>
<path opacity="0.4" d="M2.44446 12.1669C4.05557 14.1113 6.27779 15.1113 8.50001 15.1113C10.7222 15.1113 12.9445 14.1113 14.5556 12.1113C13.4445 14.1113 11.2222 15.5558 8.50001 15.6113C5.83335 15.6113 3.55557 14.1113 2.44446 12.1669Z" fill="white"/>
<path opacity="0.2" d="M15.2778 5.16705C13.889 2.50038 11.2778 0.944824 8.50007 0.944824C5.72229 0.944824 3.11118 2.50038 1.72229 5.11149C2.61118 2.55594 5.27785 0.50038 8.50007 0.444824C11.7223 0.50038 14.3334 2.55594 15.2778 5.16705Z" fill="white"/>
<path opacity="0.4" d="M2.44446 12.1669C4.05557 14.1113 6.27779 15.1113 8.50001 15.1113C10.7222 15.1113 12.9445 14.1113 14.5556 12.1113C13.4445 14.1113 11.2222 15.5558 8.50001 15.6113C5.83335 15.6113 3.55557 14.1113 2.44446 12.1669Z" fill="white"/>
<path d="M14.5556 8.11122C14.5556 11.4446 11.8333 14.1668 8.50001 14.1668C5.16668 14.1668 2.44446 11.4446 2.44446 8.11122C2.44446 4.77789 5.16668 2.05566 8.50001 2.05566C11.8333 2.05566 14.5556 4.77789 14.5556 8.11122Z" fill="#FF7C02"/>
<path d="M10.5 9.00033L10.8333 11.1114C10.8888 11.4448 10.5555 11.667 10.2777 11.5559L8.38885 10.5559C8.27774 10.5003 8.11107 10.5003 7.99996 10.5559L6.11107 11.5559C5.83329 11.7225 5.49996 11.4448 5.55551 11.1114L5.88885 9.00033C5.88885 8.88921 5.88885 8.72255 5.77774 8.66699L4.22218 7.16699C3.99996 6.94477 4.11107 6.55588 4.4444 6.50033L6.55551 6.16699C6.66663 6.16699 6.77774 6.05588 6.83329 5.94477L7.83329 4.00033C7.99996 3.72255 8.38885 3.72255 8.55551 4.00033L9.49996 5.94477C9.55551 6.05588 9.66663 6.16699 9.77774 6.16699L11.8888 6.50033C12.2222 6.55588 12.3333 6.94477 12.1111 7.16699L10.5555 8.66699C10.5 8.72255 10.4444 8.88921 10.5 9.00033Z" fill="#EF7B56"/>
<path d="M13.9445 10.7223C15.5556 6.889 12.7222 2.55566 8.50003 2.55566C4.33336 2.55566 1.44447 6.77789 3.00003 10.6668C1.16669 6.66678 4.05558 2.05566 8.50003 2.05566C13 2.05566 15.8889 6.77789 13.9445 10.7223Z" fill="#EF7B56"/>
<path d="M10.8333 9.33382L11.1667 11.4449C11.2222 11.7783 10.8889 12.0005 10.6111 11.8894L8.72222 10.8894C8.61111 10.8338 8.44444 10.8338 8.33333 10.8894L6.44444 11.8894C6.16667 12.056 5.83333 11.7783 5.88889 11.4449L6.22222 9.33382C6.22222 9.22271 6.22222 9.05604 6.11111 9.00049L4.55555 7.50049C4.33333 7.27827 4.44444 6.88938 4.77778 6.83382L6.88889 6.50049C7 6.50049 7.11111 6.38938 7.16667 6.27827L8.11111 4.33382C8.27778 4.05604 8.66667 4.05604 8.83333 4.33382L9.77778 6.27827C9.83333 6.38938 9.94444 6.50049 10.0556 6.50049L12.1667 6.83382C12.5 6.88938 12.6111 7.27827 12.3889 7.50049L10.9444 9.00049C10.8333 9.05604 10.7778 9.22271 10.8333 9.33382Z" fill="#F9CF6B"/>
<path opacity="0.5" d="M4.94447 7.55594C4.72225 7.33371 4.83336 7.00038 5.16669 6.94482L7.05558 6.66705C7.16669 6.66705 7.2778 6.55594 7.33336 6.50038L8.16669 4.77816C8.2778 4.50038 8.66669 4.50038 8.7778 4.77816L9.61114 6.50038C9.66669 6.61149 9.7778 6.66705 9.88892 6.66705L11.7778 6.94482C12.0556 7.00038 12.1667 7.33371 12 7.55594C12 7.55594 10.7778 8.88927 8.38891 8.88927C6.55558 8.88927 4.94447 7.55594 4.94447 7.55594Z" fill="white"/>
<path opacity="0.7" d="M8.55552 5.9449C8.38885 6.33379 8.11107 6.61157 7.99996 6.55602C7.88885 6.50046 7.8333 6.11157 7.99996 5.72268C8.16663 5.33379 8.44441 5.05602 8.55552 5.11157C8.66663 5.16713 8.72219 5.55602 8.55552 5.9449Z" fill="white"/>
<path d="M5.44447 4.16672C5.27781 4.16672 5.16669 4.22228 5.05558 4.27783C5.11114 4.33339 5.55558 4.77783 5.50003 4.83339C5.44447 4.88894 5.00003 4.4445 4.94447 4.38894C4.88892 4.50005 4.83336 4.61117 4.83336 4.77783C4.83336 5.38894 4.77781 5.77783 4.66669 5.77783C4.61114 5.77783 4.55558 5.38894 4.50003 4.77783C4.50003 4.61117 4.44447 4.50005 4.38892 4.38894C4.33336 4.4445 3.88892 4.88894 3.83336 4.83339C3.77781 4.77783 4.22225 4.33339 4.27781 4.27783C4.16669 4.22228 4.05558 4.16672 3.88892 4.16672C2.55558 4.11117 2.55558 3.9445 3.88892 3.88894C4.00003 3.88894 4.16669 3.83339 4.27781 3.77783C4.22225 3.72228 3.77781 3.27783 3.83336 3.22228C3.88892 3.16672 4.33336 3.61117 4.38892 3.66672C4.44447 3.55561 4.50003 3.4445 4.50003 3.27783C4.55558 1.9445 4.72225 1.9445 4.77781 3.27783C4.77781 3.38894 4.83336 3.55561 4.88892 3.66672C4.94447 3.61117 5.38892 3.16672 5.44447 3.22228C5.50003 3.27783 5.33336 3.50005 5.05558 3.77783V3.83339C5.16669 3.88894 5.27781 3.9445 5.44447 3.9445C6.05558 3.9445 6.44447 4.00005 6.44447 4.11117C6.44447 4.11117 6.05558 4.16672 5.44447 4.16672Z" fill="white"/>
<path opacity="0.2" d="M15.2778 5.16705C13.889 2.50038 11.2778 0.944824 8.50007 0.944824C5.72229 0.944824 3.11118 2.50038 1.72229 5.11149C2.61118 2.55594 5.27785 0.50038 8.50007 0.444824C11.7223 0.50038 14.3334 2.55594 15.2778 5.16705Z" fill="white"/>
</svg>
