<svg width="16" height="16" viewBox="0 0 16 16" fill="none" xmlns="http://www.w3.org/2000/svg">
<path d="M6.40195 3.19991H9.60195C9.60195 2.77556 9.43338 2.3686 9.13332 2.06854C8.83327 1.76848 8.4263 1.59991 8.00195 1.59991C7.57761 1.59991 7.17064 1.76848 6.87058 2.06854C6.57052 2.3686 6.40195 2.77556 6.40195 3.19991ZM4.80195 3.19991C4.80195 2.35122 5.13909 1.53728 5.73921 0.937167C6.33933 0.33705 7.15326 -9.15527e-05 8.00195 -9.15527e-05C8.85065 -9.15527e-05 9.66458 0.33705 10.2647 0.937167C10.8648 1.53728 11.202 2.35122 11.202 3.19991H15.202C15.4141 3.19991 15.6176 3.28419 15.7676 3.43422C15.9177 3.58425 16.002 3.78773 16.002 3.99991C16.002 4.21208 15.9177 4.41556 15.7676 4.56559C15.6176 4.71562 15.4141 4.79991 15.202 4.79991H14.4964L13.7876 13.0719C13.7194 13.8707 13.3539 14.6148 12.7634 15.157C12.1729 15.6992 11.4004 16 10.5988 15.9999H5.40515C4.60348 16 3.83097 15.6992 3.24047 15.157C2.64997 14.6148 2.2845 13.8707 2.21635 13.0719L1.50755 4.79991H0.801953C0.58978 4.79991 0.386297 4.71562 0.236268 4.56559C0.0862386 4.41556 0.00195313 4.21208 0.00195312 3.99991C0.00195313 3.78773 0.0862386 3.58425 0.236268 3.43422C0.386297 3.28419 0.58978 3.19991 0.801953 3.19991H4.80195ZM10.402 7.99991C10.402 7.78773 10.3177 7.58425 10.1676 7.43422C10.0176 7.28419 9.81413 7.19991 9.60195 7.19991C9.38978 7.19991 9.1863 7.28419 9.03627 7.43422C8.88624 7.58425 8.80195 7.78773 8.80195 7.99991V11.1999C8.80195 11.4121 8.88624 11.6156 9.03627 11.7656C9.1863 11.9156 9.38978 11.9999 9.60195 11.9999C9.81413 11.9999 10.0176 11.9156 10.1676 11.7656C10.3177 11.6156 10.402 11.4121 10.402 11.1999V7.99991ZM6.40195 7.19991C6.61413 7.19991 6.81761 7.28419 6.96764 7.43422C7.11767 7.58425 7.20195 7.78773 7.20195 7.99991V11.1999C7.20195 11.4121 7.11767 11.6156 6.96764 11.7656C6.81761 11.9156 6.61413 11.9999 6.40195 11.9999C6.18978 11.9999 5.9863 11.9156 5.83627 11.7656C5.68624 11.6156 5.60195 11.4121 5.60195 11.1999V7.99991C5.60195 7.78773 5.68624 7.58425 5.83627 7.43422C5.9863 7.28419 6.18978 7.19991 6.40195 7.19991ZM3.80995 12.9359C3.84404 13.3354 4.02689 13.7076 4.32231 13.9787C4.61773 14.2498 5.00418 14.4002 5.40515 14.3999H10.5988C10.9995 14.3998 11.3855 14.2493 11.6806 13.9782C11.9757 13.7071 12.1583 13.3352 12.1924 12.9359L12.89 4.79991H3.11395L3.80995 12.9359Z" fill="#9D9D9D"/>
</svg>
