<svg width="20" height="20" viewBox="0 0 20 20" fill="none" xmlns="http://www.w3.org/2000/svg">
<path fill-rule="evenodd" clip-rule="evenodd" d="M8.66926 0.866639L9.66415 0.866639C11.2802 0.866621 12.5698 0.866608 13.5814 0.99505C14.6232 1.12733 15.4906 1.40809 16.1823 2.06134C16.8804 2.72069 17.1864 3.55791 17.3295 4.56299C17.4667 5.52711 17.4667 6.75269 17.4667 8.27156V9.16664C17.4667 9.60847 17.1085 9.96664 16.6667 9.96664C16.2249 9.96664 15.8667 9.60847 15.8667 9.16664V8.33331C15.8667 6.73805 15.8648 5.62675 15.7455 4.78848C15.6301 3.97813 15.4193 3.54152 15.0837 3.22456C14.7416 2.9015 14.2602 2.6941 13.3798 2.58231C12.4809 2.46816 11.2931 2.46664 9.60788 2.46664L8.72553 2.46664C7.04035 2.46664 5.85254 2.46816 4.95357 2.58231C4.07315 2.6941 3.59181 2.9015 3.24974 3.22456C2.91413 3.54152 2.70329 3.97813 2.58793 4.78848C2.4686 5.62675 2.4667 6.73805 2.4667 8.3333L2.4667 11.6666C2.4667 13.2619 2.4686 14.3732 2.58793 15.2115C2.70329 16.0218 2.91413 16.4584 3.24974 16.7754C3.5918 17.0984 4.07315 17.3058 4.95357 17.4176C5.85254 17.5318 7.04035 17.5333 8.72552 17.5333H9.1667C9.60853 17.5333 9.9667 17.8915 9.9667 18.3333C9.9667 18.7751 9.60853 19.1333 9.1667 19.1333H8.66914C7.05317 19.1333 5.76354 19.1333 4.75203 19.0049C3.71023 18.8726 2.84282 18.5919 2.15114 17.9386C1.45301 17.2793 1.14698 16.442 1.0039 15.437C0.866655 14.4728 0.866675 13.2473 0.8667 11.7284L0.8667 8.27157C0.866675 6.75269 0.866655 5.52711 1.0039 4.56298C1.14698 3.55791 1.45301 2.72069 2.15114 2.06134C2.84282 1.40809 3.71023 1.12733 4.75203 0.99505C5.76357 0.866608 7.05323 0.866621 8.66926 0.866639Z" fill="#777777"/>
<path fill-rule="evenodd" clip-rule="evenodd" d="M5.0332 5.83345C5.0332 5.39162 5.39138 5.03345 5.8332 5.03345H12.4999C12.9417 5.03345 13.2999 5.39162 13.2999 5.83345C13.2999 6.27528 12.9417 6.63345 12.4999 6.63345H5.8332C5.39138 6.63345 5.0332 6.27528 5.0332 5.83345Z" fill="#777777"/>
<path fill-rule="evenodd" clip-rule="evenodd" d="M5.0332 10.0001C5.0332 9.55831 5.39138 9.20013 5.8332 9.20013H12.4999C12.9417 9.20013 13.2999 9.55831 13.2999 10.0001C13.2999 10.442 12.9417 10.8001 12.4999 10.8001H5.8332C5.39138 10.8001 5.0332 10.442 5.0332 10.0001Z" fill="#777777"/>
<path fill-rule="evenodd" clip-rule="evenodd" d="M15.4349 11.1438C16.0745 10.7745 16.8626 10.7745 17.5022 11.1438C17.7413 11.2818 17.9532 11.4943 18.1745 11.7163C18.1926 11.7345 18.2108 11.7528 18.2291 11.771C18.2474 11.7893 18.2656 11.8075 18.2838 11.8256C18.5058 12.0469 18.7183 12.2588 18.8563 12.4979C19.2256 13.1375 19.2256 13.9256 18.8563 14.5652C18.7183 14.8043 18.5058 15.0162 18.2838 15.2375C18.2656 15.2556 18.2474 15.2738 18.2291 15.2921L15.4725 18.0486C15.0533 18.4678 14.5506 18.6597 14.1154 18.7708C13.8982 18.8262 13.6813 18.8654 13.4895 18.8986C13.4544 18.9046 13.4204 18.9105 13.3873 18.9161C13.23 18.9431 13.0923 18.9666 12.957 18.9956C12.9429 18.9986 12.9288 19.0016 12.9146 19.0047C12.6649 19.0581 12.3979 19.1154 12.1734 19.1296C11.9217 19.1456 11.5218 19.1236 11.1992 18.8009C10.8765 18.4783 10.8545 18.0784 10.8705 17.8267C10.8847 17.6023 10.942 17.3352 10.9954 17.0856C10.9985 17.0713 11.0015 17.0572 11.0045 17.0431C11.0335 16.9078 11.057 16.7701 11.084 16.6128C11.0897 16.5797 11.0955 16.5457 11.1015 16.5106C11.1347 16.3188 11.1739 16.1019 11.2293 15.8847C11.3404 15.4495 11.5323 14.9468 11.9515 14.5276L14.708 11.771C14.7263 11.7528 14.7445 11.7345 14.7626 11.7163C14.9839 11.4943 15.1958 11.2818 15.4349 11.1438ZM16.7022 12.5294C16.5576 12.446 16.3795 12.446 16.2349 12.5294C16.2046 12.5469 16.1536 12.5882 15.8394 12.9024L13.0829 15.6589C12.9514 15.7904 12.8567 15.9787 12.7796 16.2805C12.741 16.4318 12.7107 16.595 12.6782 16.783C12.6731 16.8122 12.668 16.8422 12.6627 16.873C12.6358 17.0307 12.6056 17.2071 12.5692 17.3777C12.5642 17.4011 12.5593 17.4236 12.5547 17.4454C12.5765 17.4408 12.5991 17.4359 12.6224 17.4309C12.793 17.3945 12.9694 17.3643 13.1271 17.3374C13.1579 17.3321 13.1879 17.327 13.2171 17.3219C13.4051 17.2894 13.5683 17.2591 13.7196 17.2205C14.0214 17.1435 14.2097 17.0487 14.3412 16.9172L17.0977 14.1607C17.4119 13.8465 17.4532 13.7955 17.4707 13.7652C17.5542 13.6206 17.5542 13.4425 17.4707 13.2979C17.4532 13.2676 17.4119 13.2166 17.0977 12.9024C16.7835 12.5882 16.7325 12.5469 16.7022 12.5294ZM12.0544 17.5335C12.0544 17.5334 12.055 17.5334 12.0561 17.5335C12.0549 17.5335 12.0544 17.5335 12.0544 17.5335ZM12.4666 17.944C12.4667 17.9451 12.4667 17.9457 12.4667 17.9457L12.4666 17.944Z" fill="#777777"/>
</svg>
