<svg width="16" height="16" viewBox="0 0 16 16" fill="none" xmlns="http://www.w3.org/2000/svg">
<g id="ci:files">
<path id="Vector" d="M6 4H6.22467C6.38733 4 6.46933 4 6.546 4.01867C6.614 4.03467 6.67933 4.062 6.73933 4.09867C6.806 4.13933 6.864 4.19733 6.97933 4.312L9.02133 6.354C9.136 6.46933 9.19333 6.52733 9.23467 6.594C9.27133 6.654 9.29867 6.71933 9.31467 6.78733C9.33333 6.86333 9.33333 6.944 9.33333 7.10333V12M6 4H3.06667C2.69333 4 2.50667 4 2.364 4.07267C2.23856 4.13658 2.13658 4.23856 2.07267 4.364C2 4.50667 2 4.69333 2 5.06667V12.9333C2 13.3067 2 13.4933 2.07267 13.636C2.13658 13.7614 2.23856 13.8634 2.364 13.9273C2.50667 14 2.69267 14 3.06533 14H8.26733C8.64 14 8.82733 14 8.96933 13.9273C9.0948 13.8635 9.19679 13.7615 9.26067 13.636C9.33333 13.4933 9.33333 13.3067 9.33333 12.9333V12M6 4V6.26667C6 6.64 6 6.82667 6.07267 6.96933C6.13658 7.09477 6.23856 7.19675 6.364 7.26067C6.50667 7.33333 6.69267 7.33333 7.06533 7.33333H9.33333M9.33333 12H12.9347C13.3067 12 13.4933 12 13.6367 11.9273C13.7617 11.8633 13.8632 11.7613 13.9267 11.636C14 11.4933 14 11.3067 14 10.9333V5.10333C14 4.944 14 4.86333 13.9813 4.78733C13.9653 4.71933 13.938 4.654 13.9013 4.594C13.86 4.52733 13.8027 4.46933 13.688 4.354L11.646 2.312C11.5307 2.19733 11.4727 2.13933 11.406 2.09867C11.346 2.062 11.2807 2.03467 11.2127 2.01867C11.136 2 11.054 2 10.8913 2H10.6667M6.66667 4V3.06667C6.66667 2.69333 6.66667 2.50667 6.73933 2.364C6.80325 2.23856 6.90523 2.13658 7.03067 2.07267C7.17333 2 7.36 2 7.73333 2H10.6667M10.6667 2V4.26667C10.6667 4.64 10.6667 4.82667 10.7393 4.96933C10.8032 5.09477 10.9052 5.19675 11.0307 5.26067C11.1733 5.33333 11.3593 5.33333 11.732 5.33333H14" stroke="#FF7C02" stroke-width="1.33333" stroke-linecap="round" stroke-linejoin="round"/>
</g>
</svg>
