<svg width="12" height="14" viewBox="0 0 12 14" fill="none" xmlns="http://www.w3.org/2000/svg">
<path fill-rule="evenodd" clip-rule="evenodd" d="M8.00065 0.333313C8.36884 0.333313 8.66732 0.63179 8.66732 0.99998V3.66665H11.334C11.7022 3.66665 12.0007 3.96512 12.0007 4.33331C12.0007 4.7015 11.7022 4.99998 11.334 4.99998H8.66732C8.3137 4.99998 7.97456 4.8595 7.72451 4.60945C7.47446 4.35941 7.33398 4.02027 7.33398 3.66665V0.99998C7.33398 0.63179 7.63246 0.333313 8.00065 0.333313Z" fill="#FF7C02"/>
<path fill-rule="evenodd" clip-rule="evenodd" d="M5.33398 1.66665C5.15717 1.66665 4.9876 1.73688 4.86258 1.86191C4.73756 1.98693 4.66732 2.1565 4.66732 2.33331V8.99998C4.66732 9.17679 4.73756 9.34636 4.86258 9.47138C4.9876 9.59641 5.15717 9.66665 5.33398 9.66665H10.0007C10.1775 9.66665 10.347 9.59641 10.4721 9.47138C10.5971 9.34636 10.6673 9.17679 10.6673 8.99998V4.60946L7.72451 1.66665H5.33398ZM3.91977 0.919099C4.29484 0.544027 4.80355 0.333313 5.33398 0.333313H8.00065C8.17746 0.333313 8.34703 0.403551 8.47206 0.528575L11.8054 3.86191C11.9304 3.98693 12.0007 4.1565 12.0007 4.33331V8.99998C12.0007 9.53041 11.7899 10.0391 11.4149 10.4142C11.0398 10.7893 10.5311 11 10.0007 11H5.33398C4.80355 11 4.29484 10.7893 3.91977 10.4142C3.5447 10.0391 3.33398 9.53041 3.33398 8.99998V2.33331C3.33398 1.80288 3.5447 1.29417 3.91977 0.919099Z" fill="#FF7C02"/>
<path fill-rule="evenodd" clip-rule="evenodd" d="M2.66699 4.33333C2.49018 4.33333 2.32061 4.40357 2.19559 4.5286C2.07056 4.65362 2.00033 4.82319 2.00033 5V11.6667C2.00033 11.8435 2.07056 12.013 2.19559 12.1381C2.32061 12.2631 2.49018 12.3333 2.66699 12.3333H7.33366C7.51047 12.3333 7.68004 12.2631 7.80506 12.1381C7.93009 12.013 8.00033 11.8435 8.00033 11.6667V10.3333C8.00033 9.96514 8.2988 9.66667 8.66699 9.66667C9.03518 9.66667 9.33366 9.96514 9.33366 10.3333V11.6667C9.33366 12.1971 9.12294 12.7058 8.74787 13.0809C8.3728 13.456 7.86409 13.6667 7.33366 13.6667H2.66699C2.13656 13.6667 1.62785 13.456 1.25278 13.0809C0.877706 12.7058 0.666992 12.1971 0.666992 11.6667V5C0.666992 4.46957 0.877706 3.96086 1.25278 3.58579C1.62785 3.21071 2.13656 3 2.66699 3H4.00033C4.36852 3 4.66699 3.29848 4.66699 3.66667C4.66699 4.03486 4.36852 4.33333 4.00033 4.33333H2.66699Z" fill="#FF7C02"/>
</svg>
