<svg width="24" height="25" viewBox="0 0 24 25" fill="none" xmlns="http://www.w3.org/2000/svg">
<g id="fontisto:close" clip-path="url(#clip0_260_51348)">
<path id="Vector" d="M20.4799 4.012C19.3666 2.89623 18.0438 2.01142 16.5875 1.40838C15.1312 0.805335 13.5701 0.495951 11.9939 0.497996C5.36592 0.497996 -0.00708008 5.871 -0.00708008 12.499C-0.00708008 15.813 1.33692 18.814 3.50892 20.986C4.62225 22.1018 5.94505 22.9866 7.40134 23.5896C8.85763 24.1927 10.4187 24.502 11.9949 24.5C18.6229 24.5 23.9959 19.127 23.9959 12.499C23.9959 9.185 22.6519 6.184 20.4799 4.012ZM18.9379 19.439C18.0271 20.3521 16.9449 21.0762 15.7534 21.5698C14.5619 22.0634 13.2846 22.3166 11.9949 22.315C6.57192 22.315 2.17592 17.919 2.17592 12.496C2.1743 11.2063 2.42755 9.92902 2.92111 8.73751C3.41467 7.54601 4.13881 6.46377 5.05192 5.553C5.96248 4.63987 7.04453 3.91571 8.23588 3.42215C9.42723 2.92858 10.7044 2.67535 11.9939 2.677C17.4159 2.677 21.8119 7.073 21.8119 12.495C21.8136 13.7845 21.5604 15.0617 21.0668 16.2531C20.5733 17.4444 19.8491 18.5265 18.9359 19.437L18.9379 19.439Z" fill="#9D9D9D"/>
<path id="Vector_2" d="M13.5371 12.5L17.3921 8.64499C17.5822 8.43772 17.685 8.16501 17.6789 7.88379C17.6728 7.60257 17.5583 7.33457 17.3593 7.13574C17.1604 6.9369 16.8923 6.8226 16.6111 6.81668C16.3298 6.81077 16.0572 6.9137 15.8501 7.10399L15.8511 7.10299L11.9961 10.958L8.14105 7.10299C7.93378 6.91283 7.66107 6.81008 7.37985 6.81617C7.09863 6.82227 6.83063 6.93675 6.6318 7.13572C6.43296 7.33468 6.31866 7.60275 6.31274 7.88398C6.30683 8.1652 6.40976 8.43784 6.60005 8.64499L6.59905 8.64399L10.4541 12.499L6.59905 16.354C6.49059 16.4535 6.40339 16.5739 6.34269 16.708C6.28199 16.8421 6.24905 16.9871 6.24586 17.1343C6.24267 17.2814 6.26929 17.4277 6.32412 17.5643C6.37895 17.7009 6.46085 17.825 6.5649 17.9291C6.66895 18.0332 6.79299 18.1152 6.92956 18.1701C7.06612 18.2251 7.21239 18.2518 7.35955 18.2487C7.50671 18.2456 7.65172 18.2127 7.78586 18.1521C7.91999 18.0915 8.04048 18.0044 8.14005 17.896L8.14105 17.895L11.9961 14.04L15.8511 17.895C15.9506 18.0035 16.071 18.0907 16.2051 18.1514C16.3392 18.2121 16.4842 18.245 16.6313 18.2482C16.7785 18.2514 16.9248 18.2248 17.0614 18.1699C17.198 18.1151 17.3221 18.0332 17.4262 17.9291C17.5303 17.8251 17.6123 17.7011 17.6672 17.5645C17.7221 17.4279 17.7488 17.2817 17.7457 17.1345C17.7426 16.9873 17.7098 16.8423 17.6492 16.7082C17.5886 16.5741 17.5015 16.4536 17.3931 16.354L17.3921 16.353L13.5371 12.5Z" fill="#9D9D9D"/>
</g>
<defs>
<clipPath id="clip0_260_51348">
<rect width="24" height="24" fill="white" transform="translate(0 0.5)"/>
</clipPath>
</defs>
</svg>