<svg width="17" height="16" viewBox="0 0 17 16" fill="none" xmlns="http://www.w3.org/2000/svg">
<g id="jam:write-f">
<path id="Vector" d="M15.026 0.986541L15.4194 1.37987C15.9614 1.92254 15.8794 2.88454 15.2347 3.52854L7.12337 11.6399L4.49537 12.6012C4.16537 12.7225 3.84404 12.5652 3.7787 12.2512C3.75662 12.1373 3.76702 12.0195 3.8087 11.9112L4.7887 9.26054L12.8774 1.17121C13.522 0.527208 14.484 0.443874 15.026 0.986541ZM6.76937 1.79321C6.85692 1.79321 6.94361 1.81045 7.02449 1.84395C7.10537 1.87746 7.17887 1.92656 7.24077 1.98847C7.30268 2.05038 7.35178 2.12387 7.38529 2.20475C7.41879 2.28564 7.43603 2.37233 7.43603 2.45987C7.43603 2.54742 7.41879 2.63411 7.38529 2.715C7.35178 2.79588 7.30268 2.86937 7.24077 2.93128C7.17887 2.99318 7.10537 3.04229 7.02449 3.07579C6.94361 3.1093 6.85692 3.12654 6.76937 3.12654H4.1027C3.74908 3.12654 3.40994 3.26702 3.15989 3.51707C2.90984 3.76711 2.76937 4.10625 2.76937 4.45987V12.4599C2.76937 12.8135 2.90984 13.1526 3.15989 13.4027C3.40994 13.6527 3.74908 13.7932 4.1027 13.7932H12.1027C12.4563 13.7932 12.7955 13.6527 13.0455 13.4027C13.2956 13.1526 13.436 12.8135 13.436 12.4599V9.79321C13.436 9.6164 13.5063 9.44683 13.6313 9.3218C13.7563 9.19678 13.9259 9.12654 14.1027 9.12654C14.2795 9.12654 14.4491 9.19678 14.5741 9.3218C14.6991 9.44683 14.7694 9.6164 14.7694 9.79321V12.4599C14.7694 13.1671 14.4884 13.8454 13.9883 14.3455C13.4882 14.8456 12.8099 15.1265 12.1027 15.1265H4.1027C3.39546 15.1265 2.71718 14.8456 2.21708 14.3455C1.71699 13.8454 1.43604 13.1671 1.43604 12.4599V4.45987C1.43604 3.75263 1.71699 3.07435 2.21708 2.57426C2.71718 2.07416 3.39546 1.79321 4.1027 1.79321H6.76937Z" fill="white"/>
</g>
</svg>
