<svg width="20" height="20" viewBox="0 0 20 20" fill="none" xmlns="http://www.w3.org/2000/svg">
<g id="lets-icons:clock">
<g id="Group">
<path id="Vector" d="M9.99984 15.8333C13.2215 15.8333 15.8332 13.2216 15.8332 9.99996C15.8332 6.7783 13.2215 4.16663 9.99984 4.16663C6.77818 4.16663 4.1665 6.7783 4.1665 9.99996C4.1665 13.2216 6.77818 15.8333 9.99984 15.8333Z" stroke="#FF7C02" stroke-width="1.66667"/>
<path id="Vector_2" d="M4.97078 2.61328C4.40545 2.76469 3.88995 3.06227 3.47611 3.47611C3.06227 3.88995 2.76469 4.40545 2.61328 4.97078M15.0291 2.61328C15.5944 2.76469 16.1099 3.06227 16.5238 3.47611C16.9376 3.88995 17.2352 4.40545 17.3866 4.97078M9.99995 6.66662V9.79162C9.99995 9.90662 10.0933 9.99995 10.2083 9.99995H12.4999" stroke="#FF7C02" stroke-width="1.66667" stroke-linecap="round"/>
</g>
</g>
</svg>
