<svg width="14" height="13" viewBox="0 0 14 13" fill="none" xmlns="http://www.w3.org/2000/svg">
<path fill-rule="evenodd" clip-rule="evenodd" d="M2.47002 5.02996C2.61153 4.8934 2.80102 4.8179 2.99767 4.8197C3.19432 4.8215 3.38239 4.90046 3.52138 5.03959C3.66037 5.17871 3.73916 5.36686 3.74078 5.5635C3.74239 5.76015 3.66671 5.94957 3.53002 6.09096L2.80302 6.81796C2.29697 7.33407 2.01508 8.02906 2.01864 8.75187C2.02219 9.47467 2.3109 10.1669 2.82201 10.678C3.33312 11.1891 4.0253 11.4778 4.74811 11.4813C5.47091 11.4849 6.16591 11.203 6.68202 10.697L7.40902 9.96996C7.55119 9.83748 7.73924 9.76535 7.93354 9.76878C8.12784 9.77221 8.31323 9.85092 8.45064 9.98834C8.58805 10.1257 8.66677 10.3111 8.67019 10.5054C8.67362 10.6997 8.6015 10.8878 8.46902 11.03L7.74302 11.757C6.94386 12.5356 5.87018 12.9681 4.75445 12.9608C3.63873 12.9536 2.57076 12.5071 1.78181 11.7182C0.992855 10.9292 0.546413 9.86125 0.539152 8.74552C0.531892 7.6298 0.964398 6.55611 1.74302 5.75696L2.47002 5.02996ZM10.47 6.90896C10.3375 7.05113 10.2654 7.23918 10.2688 7.43348C10.2723 7.62778 10.351 7.81317 10.4884 7.95058C10.6258 8.08799 10.8112 8.1667 11.0055 8.17013C11.1998 8.17356 11.3878 8.10144 11.53 7.96896L12.257 7.24296C13.0356 6.4438 13.4681 5.37012 13.4609 4.25439C13.4536 3.13867 13.0072 2.0707 12.2182 1.28175C11.4293 0.492794 10.3613 0.0463517 9.24558 0.0390914C8.12986 0.0318312 7.05617 0.464337 6.25702 1.24296L5.53002 1.96996C5.39347 2.11147 5.31796 2.30096 5.31976 2.49761C5.32156 2.69426 5.40052 2.88233 5.53965 3.02132C5.67877 3.16031 5.86692 3.2391 6.06357 3.24071C6.26021 3.24233 6.44963 3.16664 6.59102 3.02996L7.31802 2.30296C7.83413 1.7969 8.52912 1.51502 9.25193 1.51858C9.97473 1.52213 10.6669 1.81084 11.178 2.32195C11.6891 2.83306 11.9778 3.52524 11.9814 4.24805C11.985 4.97085 11.7031 5.66585 11.197 6.18196L10.47 6.90896ZM9.53002 5.02996C9.60371 4.9613 9.66281 4.87849 9.7038 4.7865C9.74479 4.6945 9.76683 4.59518 9.76861 4.49448C9.77039 4.39378 9.75186 4.29375 9.71414 4.20036C9.67642 4.10697 9.62028 4.02214 9.54906 3.95092C9.47784 3.8797 9.39301 3.82356 9.29962 3.78583C9.20623 3.74811 9.1062 3.72959 9.0055 3.73137C8.90479 3.73314 8.80548 3.75518 8.71348 3.79618C8.62148 3.83717 8.53868 3.89627 8.47002 3.96996L4.47002 7.96996C4.39633 8.03862 4.33723 8.12142 4.29624 8.21342C4.25525 8.30542 4.2332 8.40473 4.23143 8.50544C4.22965 8.60614 4.24817 8.70617 4.2859 8.79956C4.32362 8.89294 4.37976 8.97778 4.45098 9.049C4.5222 9.12021 4.60703 9.17636 4.70042 9.21408C4.79381 9.2518 4.89384 9.27033 4.99454 9.26855C5.09524 9.26677 5.19456 9.24473 5.28656 9.20374C5.37856 9.16275 5.46136 9.10364 5.53002 9.02996L9.53002 5.02996Z" fill="#FF7C02"/>
</svg>
