<svg width="14" height="18" viewBox="0 0 14 18" fill="none" xmlns="http://www.w3.org/2000/svg">
<path d="M0.333252 8.99984C0.333252 9.22085 0.421049 9.43281 0.57733 9.58909C0.73361 9.74537 0.945572 9.83317 1.16659 9.83317H7.49159L5.57492 11.7415C5.49681 11.819 5.43482 11.9111 5.39251 12.0127C5.3502 12.1142 5.32842 12.2232 5.32842 12.3332C5.32842 12.4432 5.3502 12.5521 5.39251 12.6537C5.43482 12.7552 5.49681 12.8474 5.57492 12.9248C5.65239 13.0029 5.74455 13.0649 5.8461 13.1072C5.94765 13.1496 6.05658 13.1713 6.16658 13.1713C6.2766 13.1713 6.38552 13.1496 6.48707 13.1072C6.58861 13.0649 6.68078 13.0029 6.75825 12.9248L10.0916 9.5915C10.1675 9.51225 10.2269 9.4188 10.2666 9.3165C10.3499 9.11362 10.3499 8.88605 10.2666 8.68317C10.2269 8.58088 10.1675 8.48742 10.0916 8.40817L6.75825 5.07484C6.68055 4.99714 6.58831 4.9355 6.48679 4.89345C6.38527 4.8514 6.27647 4.82976 6.16658 4.82976C6.0567 4.82976 5.9479 4.8514 5.84638 4.89345C5.74486 4.9355 5.65262 4.99714 5.57492 5.07484C5.49722 5.15254 5.43559 5.24478 5.39354 5.3463C5.35148 5.44781 5.32984 5.55662 5.32984 5.6665C5.32984 5.77639 5.35148 5.88519 5.39354 5.98671C5.43559 6.08823 5.49722 6.18047 5.57492 6.25817L7.49159 8.1665H1.16659C0.945572 8.1665 0.73361 8.2543 0.57733 8.41058C0.421049 8.56686 0.333252 8.77882 0.333252 8.99984ZM11.1666 0.666504H2.83325C2.17021 0.666504 1.53433 0.929896 1.06549 1.39874C0.596644 1.86758 0.333252 2.50346 0.333252 3.1665V5.6665C0.333252 5.88752 0.421049 6.09948 0.57733 6.25576C0.73361 6.41204 0.945572 6.49984 1.16659 6.49984C1.3876 6.49984 1.59956 6.41204 1.75584 6.25576C1.91212 6.09948 1.99992 5.88752 1.99992 5.6665V3.1665C1.99992 2.94549 2.08772 2.73353 2.244 2.57725C2.40028 2.42097 2.61224 2.33317 2.83325 2.33317H11.1666C11.3876 2.33317 11.5996 2.42097 11.7558 2.57725C11.9121 2.73353 11.9999 2.94549 11.9999 3.1665V14.8332C11.9999 15.0542 11.9121 15.2661 11.7558 15.4224C11.5996 15.5787 11.3876 15.6665 11.1666 15.6665H2.83325C2.61224 15.6665 2.40028 15.5787 2.244 15.4224C2.08772 15.2661 1.99992 15.0542 1.99992 14.8332V12.3332C1.99992 12.1122 1.91212 11.9002 1.75584 11.7439C1.59956 11.5876 1.3876 11.4998 1.16659 11.4998C0.945572 11.4998 0.73361 11.5876 0.57733 11.7439C0.421049 11.9002 0.333252 12.1122 0.333252 12.3332V14.8332C0.333252 15.4962 0.596644 16.1321 1.06549 16.6009C1.53433 17.0698 2.17021 17.3332 2.83325 17.3332H11.1666C11.8296 17.3332 12.4655 17.0698 12.9344 16.6009C13.4032 16.1321 13.6666 15.4962 13.6666 14.8332V3.1665C13.6666 2.50346 13.4032 1.86758 12.9344 1.39874C12.4655 0.929896 11.8296 0.666504 11.1666 0.666504Z" fill="rgb(68, 68, 68)"/>
</svg>
