<svg width="20" height="20" viewBox="0 0 20 20" fill="none" xmlns="http://www.w3.org/2000/svg">
<path fill-rule="evenodd" clip-rule="evenodd" d="M1.48751 2.43215C1.99177 1.92788 2.6757 1.64459 3.38884 1.64459H16.6111C17.3242 1.64459 18.0081 1.92789 18.5124 2.43215C19.0167 2.93641 19.2999 3.62034 19.2999 4.33348V15.6668C19.2999 16.38 19.0167 17.0639 18.5124 17.5681C18.0081 18.0724 17.3242 18.3557 16.6111 18.3557H3.38884C2.6757 18.3557 1.99177 18.0724 1.48751 17.5681C0.983244 17.0639 0.699951 16.38 0.699951 15.6668V4.33348C0.699951 3.62034 0.983244 2.93641 1.48751 2.43215ZM3.38884 3.24459C3.10005 3.24459 2.82309 3.35931 2.61888 3.56352C2.41467 3.76773 2.29995 4.04469 2.29995 4.33348V15.6668C2.29995 15.9556 2.41467 16.2326 2.61888 16.4368C2.82309 16.641 3.10005 16.7557 3.38884 16.7557H16.6111C16.8999 16.7557 17.1768 16.641 17.381 16.4368C17.5852 16.2326 17.6999 15.9556 17.6999 15.6668V4.33348C17.6999 4.04469 17.5852 3.76773 17.381 3.56352C17.1768 3.35931 16.8999 3.24459 16.6111 3.24459H3.38884ZM4.47773 6.22237C4.47773 5.78054 4.8359 5.42237 5.27773 5.42237H9.05551C9.49733 5.42237 9.85551 5.78054 9.85551 6.22237V10.0001C9.85551 10.442 9.49733 10.8001 9.05551 10.8001H5.27773C4.8359 10.8001 4.47773 10.442 4.47773 10.0001V6.22237ZM6.07773 7.02237V9.20015H8.25551V7.02237H6.07773ZM12.0333 6.22237C12.0333 5.78054 12.3915 5.42237 12.8333 5.42237H14.7222C15.164 5.42237 15.5222 5.78054 15.5222 6.22237C15.5222 6.6642 15.164 7.02237 14.7222 7.02237H12.8333C12.3915 7.02237 12.0333 6.6642 12.0333 6.22237ZM12.0333 10.0001C12.0333 9.55832 12.3915 9.20015 12.8333 9.20015H14.7222C15.164 9.20015 15.5222 9.55832 15.5222 10.0001C15.5222 10.442 15.164 10.8001 14.7222 10.8001H12.8333C12.3915 10.8001 12.0333 10.442 12.0333 10.0001ZM4.47773 13.7779C4.47773 13.3361 4.8359 12.9779 5.27773 12.9779H14.7222C15.164 12.9779 15.5222 13.3361 15.5222 13.7779C15.5222 14.2198 15.164 14.5779 14.7222 14.5779H5.27773C4.8359 14.5779 4.47773 14.2198 4.47773 13.7779Z" fill="#FF7C02"/>
</svg>
