<svg width="19" height="19" viewBox="0 0 19 19" fill="none" xmlns="http://www.w3.org/2000/svg">
<path d="M9 2.5H3.16667C2.72464 2.5 2.30072 2.67559 1.98816 2.98816C1.67559 3.30072 1.5 3.72464 1.5 4.16667V15.8333C1.5 16.2754 1.67559 16.6993 1.98816 17.0118C2.30072 17.3244 2.72464 17.5 3.16667 17.5H14.8333C15.2754 17.5 15.6993 17.3244 16.0118 17.0118C16.3244 16.6993 16.5 16.2754 16.5 15.8333V10" stroke="#25A07B" stroke-width="1.66667" stroke-linecap="round" stroke-linejoin="round"/>
<path d="M14.3125 2.18744C14.644 1.85592 15.0936 1.66968 15.5625 1.66968C16.0313 1.66968 16.4809 1.85592 16.8125 2.18744C17.144 2.51897 17.3302 2.9686 17.3302 3.43744C17.3302 3.90629 17.144 4.35592 16.8125 4.68744L8.99996 12.4999L5.66663 13.3333L6.49996 9.99994L14.3125 2.18744Z" stroke="#25A07B" stroke-width="1.66667" stroke-linecap="round" stroke-linejoin="round"/>
</svg>
