<svg width="18" height="22" viewBox="0 0 18 22" fill="none" xmlns="http://www.w3.org/2000/svg">
<path d="M0.333374 2.33335C0.333374 1.75872 0.561647 1.20762 0.967976 0.801289C1.3743 0.39496 1.92541 0.166687 2.50004 0.166687H11.1667C11.454 0.166748 11.7295 0.280925 11.9326 0.484104L17.3493 5.90077C17.5525 6.10389 17.6666 6.37939 17.6667 6.66669V19.6667C17.6667 20.2413 17.4384 20.7924 17.0321 21.1987C16.6258 21.6051 16.0747 21.8334 15.5 21.8334H2.50004C1.92541 21.8334 1.3743 21.6051 0.967976 21.1987C0.561647 20.7924 0.333374 20.2413 0.333374 19.6667V2.33335ZM15.0515 6.66669L11.1667 2.78185V6.66669H15.0515ZM9.00004 2.33335H2.50004V19.6667H15.5V8.83335H10.0834C9.79606 8.83335 9.52051 8.71922 9.31734 8.51605C9.11418 8.31289 9.00004 8.03734 9.00004 7.75002V2.33335ZM4.66671 12.0834C4.66671 11.796 4.78084 11.5205 4.98401 11.3173C5.18717 11.1142 5.46272 11 5.75004 11H12.25C12.5374 11 12.8129 11.1142 13.0161 11.3173C13.2192 11.5205 13.3334 11.796 13.3334 12.0834C13.3334 12.3707 13.2192 12.6462 13.0161 12.8494C12.8129 13.0525 12.5374 13.1667 12.25 13.1667H5.75004C5.46272 13.1667 5.18717 13.0525 4.98401 12.8494C4.78084 12.6462 4.66671 12.3707 4.66671 12.0834ZM4.66671 16.4167C4.66671 16.1294 4.78084 15.8538 4.98401 15.6507C5.18717 15.4475 5.46272 15.3334 5.75004 15.3334H12.25C12.5374 15.3334 12.8129 15.4475 13.0161 15.6507C13.2192 15.8538 13.3334 16.1294 13.3334 16.4167C13.3334 16.704 13.2192 16.9796 13.0161 17.1827C12.8129 17.3859 12.5374 17.5 12.25 17.5H5.75004C5.46272 17.5 5.18717 17.3859 4.98401 17.1827C4.78084 16.9796 4.66671 16.704 4.66671 16.4167Z" fill="#9D9D9D"/>
</svg>
