<svg width="16" height="16" viewBox="0 0 16 16" fill="none" xmlns="http://www.w3.org/2000/svg">
<path fill-rule="evenodd" clip-rule="evenodd" d="M8 -4.37112e-08C8.55228 -1.95702e-08 9 0.421379 9 0.941176L9 15.0588C9 15.5786 8.55228 16 8 16C7.44771 16 7 15.5786 7 15.0588L7 0.941176C7 0.421379 7.44772 -6.78523e-08 8 -4.37112e-08Z" fill="#FF7C02"/>
<path fill-rule="evenodd" clip-rule="evenodd" d="M0 8C0 7.44772 0.421379 7 0.941176 7H15.0588C15.5786 7 16 7.44772 16 8C16 8.55228 15.5786 9 15.0588 9H0.941176C0.421379 9 0 8.55228 0 8Z" fill="#FF7C02"/>
</svg>
