<svg width="20" height="20" viewBox="0 0 20 20" fill="none" xmlns="http://www.w3.org/2000/svg">
<g clip-path="url(#clip0_257_14496)">
<path d="M7.91686 0.916992C7.16541 0.916992 6.44474 1.2155 5.91339 1.74686L5.16654 3.06946L4.72479 4.8962C4.79558 4.83824 4.87106 4.78572 4.95065 4.73923C5.21854 4.58275 5.52322 4.5003 5.83346 4.50033C6.03239 4.50034 6.22317 4.42133 6.36383 4.28068C6.5045 4.14002 6.58353 3.94925 6.58353 3.75033C6.58353 3.3967 6.724 3.05756 6.97405 2.80752C7.2241 2.55747 7.56324 2.41699 7.91686 2.41699C8.27048 2.41699 8.60962 2.55747 8.85967 2.80752C9.10972 3.05756 9.25019 3.3967 9.25019 3.75033C9.25019 4.16454 9.58598 4.50033 10.0002 4.50033C10.4144 4.50033 10.7502 4.16454 10.7502 3.75033C10.7502 3.3967 10.8907 3.05756 11.1407 2.80752C11.3908 2.55747 11.7299 2.41699 12.0835 2.41699C12.4371 2.41699 12.7763 2.55747 13.0263 2.80752C13.2764 3.05756 13.4169 3.3967 13.4169 3.75033C13.4169 3.94928 13.4959 4.14007 13.6366 4.28073C13.7773 4.42139 13.9681 4.50038 14.1671 4.50033C14.4774 4.50024 14.7822 4.58267 15.0502 4.73919C15.3181 4.8957 15.5397 5.12066 15.6921 5.391C15.8444 5.66135 15.9222 5.96735 15.9174 6.27765C15.9125 6.58794 15.8252 6.89137 15.6645 7.15683C15.5374 7.36665 15.521 7.62536 15.6205 7.84957C15.72 8.07379 15.9229 8.23517 16.1637 8.2817C16.5631 8.35886 16.9231 8.57264 17.1819 8.88632C17.4408 9.20001 17.5824 9.59403 17.5824 10.0007C17.5824 10.4075 17.4408 10.8015 17.1819 11.1152C16.9231 11.4288 16.5631 11.6426 16.1637 11.7198C15.9229 11.7663 15.7201 11.9276 15.6206 12.1518C15.521 12.3759 15.5374 12.6346 15.6643 12.8444C15.8249 13.1099 15.9121 13.4132 15.9169 13.7234C15.9216 14.0336 15.8438 14.3395 15.6915 14.6098C15.5391 14.88 15.3176 15.1049 15.0497 15.2614C14.7818 15.4179 14.4772 15.5004 14.1669 15.5003C13.968 15.5003 13.7772 15.5793 13.6366 15.72C13.4959 15.8606 13.4169 16.0514 13.4169 16.2503C13.4169 16.6039 13.2764 16.9431 13.0263 17.1931C12.7763 17.4432 12.4371 17.5837 12.0835 17.5837C11.7299 17.5837 11.3908 17.4432 11.1407 17.1931C10.8907 16.9431 10.7502 16.6039 10.7502 16.2503C10.7502 15.8361 10.4144 15.5003 10.0002 15.5003C9.58598 15.5003 9.25019 15.8361 9.25019 16.2503C9.25019 16.6039 9.10972 16.9431 8.85967 17.1931C8.60962 17.4432 8.27048 17.5837 7.91686 17.5837C7.56324 17.5837 7.2241 17.4432 6.97405 17.1931C6.724 16.9431 6.58353 16.6039 6.58353 16.2503C6.58353 15.8361 6.24774 15.5003 5.83353 15.5003C5.3694 15.5003 4.92428 15.316 4.59609 14.9878C4.2679 14.6596 4.08353 14.2145 4.08353 13.7503C4.08337 13.4308 4.17073 13.1169 4.33611 12.8435C4.46302 12.6336 4.47933 12.375 4.37979 12.1509C4.28025 11.9268 4.07742 11.7655 3.83664 11.7189C3.58613 11.6705 3.35109 11.5684 3.14679 11.4215L2.58353 13.7507C2.58362 14.6125 2.92602 15.439 3.53543 16.0484C3.98523 16.4982 4.55329 16.8026 5.16653 16.9312C5.28946 17.4277 5.54567 17.8861 5.91339 18.2538C6.44474 18.7851 7.16541 19.0837 7.91686 19.0837C8.6683 19.0837 9.38897 18.7851 9.92033 18.2538C9.94757 18.2266 9.97419 18.1988 10.0002 18.1706C10.0262 18.1988 10.0528 18.2266 10.0801 18.2538C10.6114 18.7851 11.3321 19.0837 12.0835 19.0837C12.835 19.0837 13.5556 18.7851 14.087 18.2538C14.4547 17.8861 14.7109 17.4277 14.8338 16.9312C15.1746 16.8598 15.5031 16.7337 15.8063 16.5566C16.3038 16.266 16.7151 15.8484 16.9981 15.3465C17.2811 14.8446 17.4255 14.2765 17.4167 13.7004C17.4125 13.4285 17.3742 13.1594 17.3036 12.8992C17.6992 12.6983 18.0524 12.417 18.3389 12.0699C18.8195 11.4875 19.0824 10.7559 19.0824 10.0007C19.0824 9.24559 18.8195 8.51399 18.3389 7.93156C18.0524 7.58451 17.6994 7.30333 17.3039 7.10242C17.3746 6.8422 17.4129 6.57305 17.4172 6.30106C17.4262 5.7248 17.2818 5.15651 16.9988 4.65444C16.7158 4.15237 16.3043 3.73459 15.8067 3.44393C15.5034 3.26679 15.1747 3.14075 14.8338 3.06935C14.7109 2.57289 14.4547 2.11454 14.087 1.74686C13.5556 1.2155 12.835 0.916992 12.0835 0.916992C11.3321 0.916992 10.6114 1.2155 10.0801 1.74686C10.0528 1.77409 10.0262 1.80183 10.0002 1.83004C9.97419 1.80183 9.94757 1.77409 9.92033 1.74686C9.38898 1.2155 8.6683 0.916992 7.91686 0.916992Z" fill="#444444"/>
<path d="M2.81844 11.1143C2.55956 10.8006 2.41797 10.4066 2.41797 9.99991C2.41797 9.5932 2.55956 9.19917 2.81844 8.88549C3.07731 8.5718 3.43732 8.35803 3.83664 8.28087C3.86176 8.27602 3.88647 8.26992 3.91069 8.26262L4.22853 6.9483C4.13666 6.73708 4.08709 6.50906 4.08352 6.27722C4.07875 5.96701 4.15654 5.66111 4.30891 5.39086C4.41601 5.20089 4.55727 5.03333 4.72479 4.8962L5.16654 3.06946C4.82576 3.14089 4.49724 3.26693 4.19407 3.44401C3.69656 3.73462 3.28525 4.15227 3.00227 4.65417C2.7193 5.15607 2.57484 5.72417 2.5837 6.30028C2.58788 6.5722 2.62614 6.84128 2.69675 7.10147C2.30117 7.30238 1.948 7.5836 1.66153 7.93073C1.18087 8.51315 0.917969 9.24475 0.917969 9.99991C0.917969 10.7551 1.18087 11.4867 1.66153 12.0691C1.94803 12.4162 2.30124 12.6975 2.69685 12.8984C2.62187 13.1748 2.58342 13.4616 2.58353 13.7507L3.14679 11.4215C3.02543 11.3342 2.91491 11.2312 2.81844 11.1143Z" fill="#444444"/>
<path d="M4.37982 7.84888C4.47935 7.62473 4.463 7.36608 4.33605 7.15624C4.29547 7.08918 4.25958 7.0197 4.22853 6.9483L3.91069 8.26262C4.11864 8.2 4.29066 8.04964 4.37982 7.84888Z" fill="#444444"/>
<path d="M5.91339 1.74686C5.54567 2.11457 5.28947 2.57295 5.16654 3.06946L5.91339 1.74686Z" fill="#444444"/>
<path fill-rule="evenodd" clip-rule="evenodd" d="M12.9169 6.3335C13.3311 6.3335 13.6669 6.66928 13.6669 7.0835V12.0835C13.6669 12.4977 13.3311 12.8335 12.9169 12.8335C12.5027 12.8335 12.1669 12.4977 12.1669 12.0835V7.0835C12.1669 6.66928 12.5027 6.3335 12.9169 6.3335ZM8.33354 8.2052L7.84633 9.66683H8.82074L8.33354 8.2052ZM9.32074 11.1668L9.70536 12.3207C9.83634 12.7136 10.2611 12.926 10.654 12.795C11.047 12.664 11.2594 12.2393 11.1284 11.8463L9.59338 7.24132L9.59297 7.24008C9.50447 6.97612 9.33527 6.74664 9.10928 6.58406C8.88329 6.42148 8.61193 6.33401 8.33354 6.33401C8.05514 6.33401 7.78378 6.42148 7.55779 6.58406C7.3318 6.74664 7.16261 6.97612 7.07411 7.24008L5.53869 11.8463C5.40771 12.2393 5.62008 12.664 6.01303 12.795C6.40599 12.926 6.83073 12.7136 6.96172 12.3207L7.34633 11.1668H9.32074Z" fill="#444444"/>
</g>
<defs>
<clipPath id="clip0_257_14496">
<rect width="20" height="20" fill="white"/>
</clipPath>
</defs>
</svg>
