<svg width="20" height="20" viewBox="0 0 20 20" fill="none" xmlns="http://www.w3.org/2000/svg">
<g clip-path="url(#clip0_257_19745)">
<path fill-rule="evenodd" clip-rule="evenodd" d="M9.84689 0.255082C9.9488 0.248957 10.051 0.248957 10.1529 0.255082L10.1648 0.255801C10.6383 0.291852 11.0192 0.506239 11.3603 0.773297C11.6795 1.02316 12.0315 1.37519 12.4378 1.78155L12.4688 1.81259C12.8665 2.2103 12.9592 2.28813 13.0411 2.32821L13.1088 2.35628C13.1939 2.3856 13.3132 2.39572 13.8771 2.39572L14.0317 2.39572C14.6649 2.39567 15.2142 2.39562 15.6548 2.45468C16.1299 2.51833 16.5904 2.66279 16.964 3.03715C17.3367 3.4107 17.4811 3.87023 17.5449 4.34524C17.6043 4.78743 17.6043 5.3387 17.6043 5.97499L17.6043 6.1229C17.6043 6.68471 17.6142 6.80539 17.6436 6.89165L17.6714 6.95805C17.7113 7.04021 17.7883 7.13213 18.1874 7.53116L18.2185 7.56226C18.6248 7.96856 18.9768 8.32053 19.2267 8.63966C19.4937 8.98078 19.708 9.36168 19.7441 9.83514C19.7523 9.94449 19.7523 10.0548 19.7441 10.1642C19.7081 10.6376 19.4937 11.0194 19.2267 11.3605C18.9768 11.6796 18.6248 12.0316 18.2185 12.4379L18.1874 12.469C17.7736 12.8827 17.7061 12.9663 17.6671 13.0512L17.6663 13.053C17.6599 13.0667 17.6538 13.0814 17.648 13.097L17.6472 13.0991C17.6152 13.1853 17.6043 13.2912 17.6043 13.8773L17.6043 14.0319C17.6043 14.6651 17.6043 15.2144 17.5453 15.655C17.4816 16.1301 17.3372 16.5906 16.9628 16.9641C16.5893 17.3369 16.1297 17.4813 15.6547 17.5451C15.2125 17.6045 14.6613 17.6045 14.025 17.6045L13.8771 17.6044C13.2938 17.6044 13.186 17.6152 13.0986 17.6472C13.0829 17.6532 13.0676 17.6596 13.0528 17.6664L13.051 17.6673C12.9661 17.7063 12.8825 17.7738 12.4688 18.1876L12.4377 18.2187C12.0314 18.625 11.6794 18.977 11.3603 19.2269C11.0192 19.4939 10.6383 19.7082 10.1648 19.7443C10.0555 19.7525 9.94514 19.7525 9.8358 19.7443C9.36233 19.7083 8.98058 19.4939 8.63947 19.2269C8.32033 18.977 7.96836 18.625 7.56207 18.2187L7.53097 18.1876C7.11723 17.7738 7.03365 17.7063 6.9488 17.6673L6.94701 17.6664C6.93328 17.6601 6.91861 17.654 6.90292 17.6482L6.90087 17.6474C6.81463 17.6154 6.70879 17.6044 6.12271 17.6044L5.96806 17.6045C5.33488 17.6045 4.78561 17.6045 4.34494 17.5455C3.86989 17.4818 3.40939 17.3374 3.03583 16.963C2.66308 16.5895 2.51866 16.1299 2.45485 15.6549C2.39545 15.2127 2.39548 14.6614 2.39552 14.0251L2.39552 13.8773C2.39552 13.2939 2.38481 13.1862 2.35272 13.0987C2.3468 13.0831 2.34041 13.0678 2.33352 13.053L2.3317 13.049C2.29392 12.9662 2.2278 12.8844 1.8124 12.469L1.78135 12.438C1.37499 12.0316 1.02296 11.6797 0.773101 11.3605C0.506042 11.0194 0.291751 10.6385 0.2557 10.165L0.254791 10.1531C0.248665 10.0512 0.248761 9.94899 0.254886 9.84709L0.255604 9.83514C0.291655 9.36167 0.506042 8.98078 0.773101 8.63966C1.02296 8.32051 1.37499 7.96852 1.78135 7.56221L1.8124 7.53116C2.21998 7.12359 2.2916 7.03641 2.33094 6.95279C2.3387 6.93512 2.34637 6.91664 2.35391 6.8973C2.3849 6.81165 2.39552 6.70048 2.39552 6.1229V6.02391C2.39552 6.0053 2.39552 5.98677 2.39552 5.96831C2.39547 5.33511 2.39543 4.78582 2.45448 4.34514C2.51814 3.87009 2.6626 3.40959 3.03696 3.03602C3.41051 2.66327 3.87003 2.51885 4.34504 2.45505C4.78724 2.39565 5.33852 2.39568 5.97483 2.39572C5.99107 2.39572 6.00736 2.39572 6.02371 2.39572H6.12271C6.68451 2.39572 6.80519 2.38578 6.89145 2.35638L6.95915 2.32807C7.03955 2.2894 7.12923 2.21433 7.53097 1.81259L7.56201 1.78155C7.96833 1.37519 8.32032 1.02316 8.63947 0.773297C8.98058 0.506239 9.36148 0.291947 9.83495 0.255896L9.84689 0.255082ZM9.94379 1.75199C9.88459 1.7574 9.78258 1.78337 9.56414 1.95439C9.32552 2.1412 9.03795 2.42693 8.59163 2.87325C8.56971 2.89517 8.54798 2.91697 8.52638 2.93863C8.21594 3.25002 7.93503 3.53179 7.57324 3.69674C7.56603 3.70003 7.55877 3.7032 7.55146 3.70626L7.45246 3.74766C7.44291 3.75165 7.43329 3.75544 7.42359 3.75903C7.05096 3.89704 6.6548 3.89646 6.21438 3.89581C6.18403 3.89577 6.15348 3.89572 6.12271 3.89572H6.02371C5.32439 3.89572 4.87515 3.89731 4.54474 3.94169C4.23586 3.98319 4.14504 4.04937 4.09649 4.09781C4.04875 4.14545 3.98261 4.23529 3.94119 4.54436C3.89689 4.87495 3.89552 5.32429 3.89552 6.02391V6.1229C3.89552 6.15375 3.89557 6.1844 3.89562 6.21484C3.89627 6.65405 3.89687 7.05158 3.75852 7.42374L3.75527 7.43248C3.73773 7.47792 3.71912 7.52273 3.69948 7.5669L3.69561 7.57562C3.52934 7.93725 3.24843 8.21736 2.93425 8.53074C2.91398 8.55095 2.89358 8.5713 2.87306 8.59182C2.42673 9.03815 2.14101 9.32572 1.95419 9.56434C1.78318 9.78277 1.7572 9.88479 1.75179 9.94399C1.74979 9.98136 1.74979 10.0188 1.75179 10.0562C1.7572 10.1154 1.78318 10.2174 1.95419 10.4358C2.14101 10.6745 2.42673 10.962 2.87306 11.4083C2.89498 11.4303 2.91678 11.452 2.93844 11.4736C3.24925 11.7835 3.53056 12.0639 3.69564 12.4248C3.71818 12.4736 3.73889 12.5232 3.75777 12.5735L3.75884 12.5764C3.89685 12.949 3.89626 13.3452 3.89561 13.7856C3.89557 13.8159 3.89552 13.8465 3.89552 13.8773V13.9763C3.89552 14.6756 3.89711 15.1248 3.9415 15.4552C3.98299 15.7641 4.04917 15.8549 4.09762 15.9035C4.14525 15.9512 4.23509 16.0174 4.54417 16.0588C4.87476 16.1031 5.32409 16.1044 6.02371 16.1044H6.12271C6.15356 16.1044 6.1842 16.1044 6.21464 16.1044C6.65345 16.1037 7.05065 16.1031 7.42251 16.2411C7.47463 16.2603 7.526 16.2816 7.57651 16.3049C7.9376 16.4713 8.21749 16.7519 8.53054 17.0657C8.55076 17.086 8.57111 17.1064 8.59163 17.1269C9.03795 17.5732 9.32552 17.859 9.56415 18.0458C9.78812 18.2211 9.88969 18.244 9.94822 18.2486C9.9828 18.2511 10.0172 18.2511 10.0518 18.2485C10.1104 18.2439 10.212 18.2209 10.4356 18.0458C10.6743 17.859 10.9618 17.5732 11.4081 17.1269C11.4287 17.1064 11.449 17.086 11.4692 17.0657C11.7823 16.7518 12.0623 16.4711 12.4235 16.3048C12.4727 16.2821 12.5226 16.2612 12.5733 16.2422L12.5762 16.2411C12.9488 16.1031 13.345 16.1037 13.7854 16.1044C13.8157 16.1044 13.8463 16.1044 13.8771 16.1044H13.9761C14.6754 16.1044 15.1246 16.1029 15.455 16.0585C15.7639 16.017 15.8547 15.9508 15.9033 15.9024C15.951 15.8547 16.0172 15.7649 16.0586 15.4558C16.1029 15.1252 16.1043 14.6759 16.1043 13.9763V13.8773C16.1043 13.8464 16.1042 13.8158 16.1042 13.7853C16.1035 13.3465 16.1029 12.9493 16.2409 12.5775C16.2601 12.5253 16.2814 12.474 16.3047 12.4235C16.4711 12.0624 16.7517 11.7825 17.0655 11.4694C17.0858 11.4492 17.1062 11.4289 17.1267 11.4083C17.573 10.962 17.8588 10.6745 18.0456 10.4358C18.221 10.2118 18.2438 10.1103 18.2484 10.0517C18.2509 10.0172 18.2509 9.98275 18.2483 9.94818C18.2437 9.88962 18.2207 9.78801 18.0456 9.56434C17.8588 9.32572 17.573 9.03815 17.1267 8.59182C17.1062 8.5713 17.0858 8.55095 17.0655 8.53074C16.7513 8.21736 16.4705 7.93722 16.3042 7.5756C16.3006 7.56768 16.2971 7.55969 16.2937 7.55165L16.2523 7.45265C16.2483 7.44311 16.2445 7.43348 16.2409 7.42379C16.1029 7.05116 16.1035 6.655 16.1042 6.21457C16.1042 6.18423 16.1043 6.15368 16.1043 6.1229V6.02391C16.1043 5.32459 16.1027 4.87535 16.0583 4.54494C16.0168 4.23605 15.9506 4.14523 15.9022 4.09668C15.8545 4.04895 15.7647 3.9828 15.4556 3.94139C15.125 3.89709 14.6757 3.89572 13.9761 3.89572H13.8771C13.8462 3.89572 13.8156 3.89577 13.7851 3.89581C13.3459 3.89647 12.9484 3.89707 12.5762 3.75872C12.5676 3.7555 12.559 3.75212 12.5504 3.74858L12.4505 3.70718C12.4417 3.70354 12.433 3.69972 12.4244 3.69575C12.0628 3.52948 11.7826 3.24862 11.4692 2.93444C11.449 2.91418 11.4287 2.89377 11.4081 2.87325C10.9618 2.42693 10.6743 2.1412 10.4356 1.95439C10.2172 1.78337 10.1152 1.7574 10.056 1.75199C10.0186 1.74999 9.98116 1.74999 9.94379 1.75199ZM16.9856 12.7378L16.3047 12.4235C16.3048 12.4232 16.3046 12.4237 16.3047 12.4235C16.3046 12.4238 16.3044 12.4242 16.3042 12.4246L16.9856 12.7378Z" fill="#444444"/>
<path fill-rule="evenodd" clip-rule="evenodd" d="M10.0001 7.6001C9.36357 7.6001 8.75312 7.85295 8.30304 8.30304C7.85295 8.75312 7.6001 9.36357 7.6001 10.0001C7.6001 10.3153 7.66217 10.6273 7.78279 10.9185C7.9034 11.2097 8.08018 11.4743 8.30304 11.6971C8.5259 11.92 8.79047 12.0968 9.08165 12.2174C9.37283 12.338 9.68491 12.4001 10.0001 12.4001C10.3153 12.4001 10.6273 12.338 10.9185 12.2174C11.2097 12.0968 11.4743 11.92 11.6971 11.6971C11.92 11.4743 12.0968 11.2097 12.2174 10.9185C12.338 10.6273 12.4001 10.3153 12.4001 10.0001C12.4001 9.36357 12.1472 8.75312 11.6971 8.30304C11.247 7.85295 10.6366 7.6001 10.0001 7.6001ZM7.24238 7.24238C7.97377 6.51099 8.96574 6.1001 10.0001 6.1001C11.0344 6.1001 12.0264 6.51099 12.7578 7.24238C13.4892 7.97377 13.9001 8.96574 13.9001 10.0001C13.9001 10.5122 13.7992 11.0194 13.6032 11.4925C13.4072 11.9657 13.1199 12.3956 12.7578 12.7578C12.3956 13.1199 11.9657 13.4072 11.4925 13.6032C11.0194 13.7992 10.5122 13.9001 10.0001 13.9001C9.48793 13.9001 8.98079 13.7992 8.50762 13.6032C8.03445 13.4072 7.60452 13.1199 7.24238 12.7578C6.88023 12.3956 6.59296 11.9657 6.39697 11.4925C6.20097 11.0194 6.1001 10.5122 6.1001 10.0001C6.1001 8.96574 6.51099 7.97377 7.24238 7.24238Z" fill="#444444"/>
</g>
<defs>
<clipPath id="clip0_257_19745">
<rect width="20" height="20" fill="white"/>
</clipPath>
</defs>
</svg>
