<svg width="20" height="20" viewBox="0 0 20 20" fill="none" xmlns="http://www.w3.org/2000/svg">
<path fill-rule="evenodd" clip-rule="evenodd" d="M8.32776 1.00659C8.73048 -0.0816242 10.2696 -0.0816219 10.6724 1.00659L11.8395 4.16037L14.9933 5.32752C16.0815 5.73024 16.0815 7.26939 14.9933 7.67211L11.8395 8.83926L10.6724 11.993C10.2696 13.0813 8.73048 13.0812 8.32776 11.993L7.16061 8.83926L4.00683 7.67211C2.91862 7.26939 2.91862 5.73024 4.00683 5.32752L7.16061 4.16037L8.32776 1.00659ZM9.50006 2.16074L8.52748 4.78878C8.40087 5.13089 8.13113 5.40062 7.78902 5.52723L5.16098 6.49981L7.78902 7.47239C8.13113 7.599 8.40087 7.86874 8.52748 8.21085L9.50006 10.8389L10.4726 8.21085C10.5992 7.86874 10.869 7.599 11.2111 7.47239L13.8391 6.49981L11.2111 5.52723C10.869 5.40062 10.5992 5.13089 10.4726 4.78878L9.50006 2.16074Z" fill="#444444"/>
<path fill-rule="evenodd" clip-rule="evenodd" d="M2.82776 11.5066C3.23048 10.4184 4.76963 10.4184 5.17235 11.5066L5.66421 12.8357L6.99328 13.3275C8.08149 13.7302 8.0815 15.2694 6.99328 15.6721L5.66421 16.164L5.17235 17.493C4.76963 18.5812 3.23048 18.5813 2.82776 17.493L2.3359 16.164L1.00683 15.6721C-0.081375 15.2694 -0.0813826 13.7302 1.00683 13.3275L2.3359 12.8357L2.82776 11.5066ZM4.00006 12.6607L3.70276 13.4641C3.57615 13.8062 3.30642 14.0759 2.96431 14.2025L2.16098 14.4998L2.96431 14.7971C3.30642 14.9237 3.57616 15.1935 3.70276 15.5356L4.00006 16.3389L4.29735 15.5356C4.42396 15.1934 4.69369 14.9237 5.03581 14.7971L5.83913 14.4998L5.03581 14.2025C4.69369 14.0759 4.42396 13.8062 4.29735 13.4641L4.00006 12.6607Z" fill="#444444"/>
<path fill-rule="evenodd" clip-rule="evenodd" d="M13.8278 11.0066C14.2305 9.91838 15.7696 9.91838 16.1724 11.0066L16.9343 13.0655L18.9933 13.8275C20.0815 14.2302 20.0815 15.7694 18.9933 16.1721L16.9343 16.9341L16.1724 18.993C15.7696 20.0813 14.2305 20.0812 13.8278 18.993L13.0658 16.9341L11.0068 16.1721C9.91862 15.7694 9.91862 14.2302 11.0068 13.8275L13.0658 13.0655L13.8278 11.0066ZM15.0001 12.1607L14.4326 13.6939C14.306 14.0361 14.0363 14.3058 13.6942 14.4324L12.161 14.9998L13.6942 15.5672C14.0363 15.6938 14.306 15.9636 14.4326 16.3057L15.0001 17.8389L15.5675 16.3057C15.6941 15.9636 15.9638 15.6938 16.3059 15.5672L17.8391 14.9998L16.3059 14.4324C15.9638 14.3058 15.6941 14.0361 15.5675 13.6939L15.0001 12.1607Z" fill="#444444"/>
</svg>
