<svg width="24" height="24" viewBox="0 0 24 24" fill="none" xmlns="http://www.w3.org/2000/svg">
<path d="M16.9499 7.05093C16.2158 6.31016 15.3246 5.74376 14.3422 5.39356C13.3599 5.04336 12.3113 4.9183 11.2742 5.02762C8.05962 5.3517 5.41442 7.96186 5.0553 11.1764C4.57356 15.4245 7.85817 19.0069 12.0011 19.0069C13.3238 19.0069 14.6194 18.6316 15.7373 17.9246C16.8551 17.2176 17.7495 16.2079 18.3163 15.0128C18.5966 14.426 18.1762 13.7515 17.528 13.7515C17.204 13.7515 16.8974 13.9267 16.7573 14.2157C16.2487 15.3098 15.3789 16.1953 14.2942 16.7233C13.2094 17.2513 11.9759 17.3896 10.8012 17.115C8.85669 16.6858 7.28884 15.1004 6.87716 13.1559C6.70412 12.3871 6.70612 11.5892 6.88303 10.8213C7.05994 10.0534 7.40722 9.33505 7.8992 8.71944C8.39118 8.10384 9.01526 7.60672 9.72528 7.26484C10.4353 6.92297 11.2131 6.74509 12.0011 6.74437C13.4551 6.74437 14.7515 7.34874 15.6974 8.30346L14.3748 9.62606C13.823 10.1779 14.2084 11.1238 14.9879 11.1238H18.1324C18.6141 11.1238 19.0083 10.7297 19.0083 10.2479V7.10349C19.0083 6.32394 18.0623 5.92979 17.5105 6.4816L16.9499 7.05093Z" fill="#444444"/>
</svg>
