<svg width="24" height="24" viewBox="0 0 24 24" fill="none" xmlns="http://www.w3.org/2000/svg">
<path fill-rule="evenodd" clip-rule="evenodd" d="M12 5.75C11.4033 5.75 10.831 5.98705 10.409 6.40901C9.98705 6.83097 9.75 7.40326 9.75 8C9.75 8.59674 9.98705 9.16903 10.409 9.59099C10.831 10.0129 11.4033 10.25 12 10.25C12.5967 10.25 13.169 10.0129 13.591 9.59099C14.0129 9.16903 14.25 8.59674 14.25 8C14.25 7.40326 14.0129 6.83097 13.591 6.40901C13.169 5.98705 12.5967 5.75 12 5.75ZM9.34835 5.34835C10.0516 4.64509 11.0054 4.25 12 4.25C12.9946 4.25 13.9484 4.64509 14.6517 5.34835C15.3549 6.05161 15.75 7.00544 15.75 8C15.75 8.99456 15.3549 9.94839 14.6517 10.6517C13.9484 11.3549 12.9946 11.75 12 11.75C11.0054 11.75 10.0516 11.3549 9.34835 10.6517C8.64509 9.94839 8.25 8.99456 8.25 8C8.25 7.00544 8.64509 6.05161 9.34835 5.34835ZM5.25 17.75C5.25 15.1738 7.60204 13.25 10.286 13.25H13.714C16.398 13.25 18.75 15.1738 18.75 17.75V19C18.75 19.4142 18.4142 19.75 18 19.75C17.5858 19.75 17.25 19.4142 17.25 19V17.75C17.25 16.1842 15.764 14.75 13.714 14.75H10.286C8.23596 14.75 6.75 16.1842 6.75 17.75V19C6.75 19.4142 6.41421 19.75 6 19.75C5.58579 19.75 5.25 19.4142 5.25 19V17.75Z" fill="#444444"/>
</svg>
