<svg width="20" height="20" viewBox="0 0 20 20" fill="none" xmlns="http://www.w3.org/2000/svg">
<g clip-path="url(#clip0_285_16924)">
<path fill-rule="evenodd" clip-rule="evenodd" d="M0.916748 9.99984C0.916748 4.98312 4.98337 0.916504 10.0001 0.916504C15.0168 0.916504 19.0834 4.98312 19.0834 9.99984C19.0834 15.0166 15.0168 19.0832 10.0001 19.0832C4.98337 19.0832 0.916748 15.0166 0.916748 9.99984ZM10.0001 2.4165C5.8118 2.4165 2.41675 5.81155 2.41675 9.99984C2.41675 14.1881 5.8118 17.5832 10.0001 17.5832C14.1884 17.5832 17.5834 14.1881 17.5834 9.99984C17.5834 5.81155 14.1884 2.4165 10.0001 2.4165Z" fill="#444444"/>
<path fill-rule="evenodd" clip-rule="evenodd" d="M7.95849 6.46376C8.19054 6.32979 8.47644 6.32979 8.70849 6.46376L13.7085 9.35042C13.9405 9.4844 14.0835 9.732 14.0835 9.99995C14.0835 10.2679 13.9405 10.5155 13.7085 10.6495L8.70849 13.5361C8.47644 13.6701 8.19054 13.6701 7.95849 13.5361C7.72644 13.4022 7.5835 13.1546 7.5835 12.8866V7.11328C7.5835 6.84533 7.72644 6.59774 7.95849 6.46376ZM9.0835 8.4123V11.5876L11.8335 9.99995L9.0835 8.4123Z" fill="#444444"/>
</g>
<defs>
<clipPath id="clip0_285_16924">
<rect width="20" height="20" fill="white"/>
</clipPath>
</defs>
</svg>
