<svg width="20" height="20" viewBox="0 0 20 20" fill="none" xmlns="http://www.w3.org/2000/svg">
<g clip-path="url(#clip0_257_15999)">
<path d="M5.00065 1.90416e-06C5.1726 -2.18256e-05 5.34033 0.0531422 5.48087 0.152204C5.62141 0.251266 5.72786 0.391375 5.78563 0.553319L8.88888 9.24307L7.58558 10.5464L6.79394 8.33309H3.20737L1.61742 12.7796C1.54316 12.9878 1.38924 13.158 1.18952 13.2527C0.989799 13.3474 0.760639 13.3589 0.55245 13.2846C0.344261 13.2104 0.174097 13.0564 0.0793943 12.8567C-0.0153089 12.657 -0.0267943 12.4278 0.0474642 12.2196L4.21401 0.553319C4.27188 0.391106 4.37858 0.250808 4.51945 0.151723C4.66032 0.0526376 4.82843 -0.000366176 5.00065 1.90416e-06ZM6.20062 6.66648L5.00065 3.31157L3.80236 6.66648H6.20062ZM19.0669 5.9365C18.7707 5.63999 18.4189 5.40477 18.0317 5.24429C17.6445 5.0838 17.2295 5.0012 16.8103 5.0012C16.3912 5.0012 15.9761 5.0838 15.5889 5.24429C15.2017 5.40477 14.85 5.63999 14.5537 5.9365L6.79227 13.6979C6.21056 14.2793 5.81392 15.0198 5.6523 15.8262L5.01732 19.0028C4.99024 19.1373 4.99681 19.2765 5.03644 19.4079C5.07607 19.5393 5.14754 19.6588 5.24451 19.756C5.34147 19.8531 5.46092 19.9248 5.59224 19.9646C5.72357 20.0045 5.8627 20.0113 5.99729 19.9844L9.17387 19.3478C9.98065 19.1869 10.7218 18.7909 11.3038 18.2095L19.0652 10.448C19.6632 9.84958 19.999 9.03823 19.999 8.19227C19.999 7.34631 19.6648 6.53495 19.0669 5.9365ZM15.7303 7.1148C15.8718 6.9733 16.0398 6.86106 16.2247 6.78448C16.4096 6.70791 16.6077 6.66849 16.8078 6.66849C17.0079 6.66849 17.2061 6.70791 17.3909 6.78448C17.5758 6.86106 17.7438 6.9733 17.8853 7.1148C18.0268 7.25629 18.139 7.42427 18.2156 7.60914C18.2922 7.79402 18.3316 7.99216 18.3316 8.19227C18.3316 8.39237 18.2922 8.59051 18.2156 8.77539C18.139 8.96026 18.0268 9.12824 17.8853 9.26973L10.1255 17.0328C9.77624 17.3819 9.33144 17.6196 8.84721 17.7162L6.89727 18.1061L7.28726 16.1562C7.38379 15.672 7.62156 15.2272 7.97057 14.8779L15.7303 7.1148Z" fill="#444444"/>
</g>
<defs>
<clipPath id="clip0_257_15999">
<rect width="20" height="20" fill="white"/>
</clipPath>
</defs>
</svg>
