<svg width="20" height="20" viewBox="0 0 20 20" fill="none" xmlns="http://www.w3.org/2000/svg">
<path fill-rule="evenodd" clip-rule="evenodd" d="M4.45533 3.80487C3.57616 3.92312 3.08573 4.14272 2.73106 4.4977C2.37609 4.85236 2.15603 5.34325 2.03778 6.22242C1.91663 7.12316 1.91504 8.31308 1.91504 10.0001C1.91504 11.6872 1.91663 12.8771 2.03778 13.7778C2.15603 14.657 2.37564 15.1474 2.73061 15.5021C3.08527 15.8571 3.57616 16.0771 4.45533 16.1954C5.35607 16.3165 6.54599 16.3181 8.23304 16.3181H11.767C13.4541 16.3181 14.644 16.3165 15.5447 16.1954C16.4239 16.0771 16.9144 15.8575 17.269 15.5026C17.624 15.1479 17.8441 14.657 17.9623 13.7778C18.0834 12.8771 18.085 11.6872 18.085 10.0001C18.085 8.31308 18.0834 7.12316 17.9623 6.22242C17.8441 5.34325 17.6244 4.85282 17.2695 4.49815C16.9148 4.14318 16.4239 3.92312 15.5447 3.80487C14.644 3.68372 13.4541 3.68213 11.767 3.68213H8.23304C6.54599 3.68213 5.35607 3.68372 4.45533 3.80487ZM8.17723 2.18213H11.8229C13.4413 2.18211 14.7323 2.1821 15.7447 2.31826C16.79 2.45884 17.6498 2.75686 18.3297 3.43704C19.0102 4.11695 19.3083 4.97695 19.4489 6.02248C19.5851 7.03484 19.5851 8.32588 19.585 9.94436V10.0559C19.5851 11.6744 19.5851 12.9654 19.4489 13.9778C19.3083 15.0232 19.0102 15.8831 18.3299 16.563C17.65 17.2433 16.7901 17.5414 15.7447 17.682C14.7323 17.8182 13.4413 17.8181 11.8228 17.8181H8.17724C6.55877 17.8181 5.26774 17.8182 4.25539 17.682C3.20986 17.5414 2.34986 17.2433 1.66995 16.5628C0.989774 15.8829 0.691754 15.0231 0.551165 13.9778C0.415007 12.9654 0.415022 11.6744 0.415039 10.0559V9.94432C0.415022 8.32585 0.415007 7.03483 0.551165 6.02248C0.691773 4.97704 0.989853 4.1171 1.67022 3.43722C1.67028 3.43716 1.67016 3.43728 1.67022 3.43722M1.67022 3.43722C2.35006 2.75705 3.21009 2.45884 4.25539 2.31826C5.26774 2.1821 6.55876 2.18211 8.17723 2.18213" fill="#444444"/>
<path fill-rule="evenodd" clip-rule="evenodd" d="M0.415039 8.2334C0.415039 7.81918 0.750825 7.4834 1.16504 7.4834H18.835C19.2493 7.4834 19.585 7.81918 19.585 8.2334C19.585 8.64761 19.2493 8.9834 18.835 8.9834H1.16504C0.750825 8.9834 0.415039 8.64761 0.415039 8.2334ZM3.94904 11.3256C3.94904 10.9114 4.28483 10.5756 4.69904 10.5756H6.46604C6.88025 10.5756 7.21604 10.9114 7.21604 11.3256C7.21604 11.7399 6.88025 12.0756 6.46604 12.0756H4.69904C4.28483 12.0756 3.94904 11.7399 3.94904 11.3256ZM3.94904 13.9761C3.94904 13.5619 4.28483 13.2261 4.69904 13.2261H8.23304C8.64725 13.2261 8.98304 13.5619 8.98304 13.9761C8.98304 14.3904 8.64725 14.7261 8.23304 14.7261H4.69904C4.28483 14.7261 3.94904 14.3904 3.94904 13.9761Z" fill="#444444"/>
<path fill-rule="evenodd" clip-rule="evenodd" d="M12.5346 11.6889C12.5344 11.6888 12.536 11.6878 12.5399 11.6862C12.5368 11.6882 12.5348 11.689 12.5346 11.6889ZM12.5622 11.6789C12.5822 11.6733 12.6147 11.6662 12.6647 11.6595C12.8436 11.6354 13.0963 11.6338 13.5341 11.6338C13.9719 11.6338 14.2246 11.6354 14.4035 11.6595C14.4535 11.6662 14.486 11.6733 14.506 11.6789C14.5116 11.6989 14.5187 11.7314 14.5254 11.7814C14.5495 11.9603 14.5511 12.213 14.5511 12.6508C14.5511 13.0886 14.5495 13.3413 14.5254 13.5202C14.5187 13.5702 14.5116 13.6027 14.506 13.6227C14.486 13.6283 14.4535 13.6354 14.4035 13.6421C14.2246 13.6662 13.9719 13.6678 13.5341 13.6678C13.0963 13.6678 12.8436 13.6662 12.6647 13.6421C12.6147 13.6354 12.5822 13.6283 12.5622 13.6227C12.5566 13.6027 12.5495 13.5702 12.5428 13.5202C12.5187 13.3413 12.5171 13.0886 12.5171 12.6508C12.5171 12.213 12.5187 11.9603 12.5428 11.7814C12.5495 11.7314 12.5566 11.6989 12.5622 11.6789ZM12.5346 13.6127C12.5348 13.6126 12.5368 13.6134 12.5399 13.6154C12.536 13.6138 12.5344 13.6128 12.5346 13.6127ZM12.5695 13.645C12.5715 13.6481 12.5723 13.6501 12.5722 13.6503C12.5721 13.6505 12.5711 13.6489 12.5695 13.645ZM14.496 13.6503C14.4959 13.6501 14.4967 13.6481 14.4987 13.645C14.4971 13.6489 14.4961 13.6505 14.496 13.6503ZM14.5283 13.6154C14.5314 13.6134 14.5334 13.6126 14.5336 13.6127C14.5338 13.6128 14.5322 13.6138 14.5283 13.6154ZM14.5336 11.6889C14.5334 11.689 14.5314 11.6882 14.5283 11.6862C14.5322 11.6878 14.5338 11.6888 14.5336 11.6889ZM14.4987 11.6566C14.4967 11.6535 14.4959 11.6515 14.496 11.6513C14.4961 11.6511 14.4971 11.6527 14.4987 11.6566ZM12.5695 11.6566C12.5711 11.6527 12.5721 11.6511 12.5722 11.6513C12.5723 11.6515 12.5715 11.6535 12.5695 11.6566ZM13.4909 10.1338C13.5053 10.1338 13.5197 10.1338 13.5341 10.1338C13.5485 10.1338 13.5629 10.1338 13.5773 10.1338C13.9565 10.1337 14.3124 10.1337 14.6035 10.1729C14.9274 10.2164 15.2807 10.3204 15.5726 10.6123C15.8645 10.9042 15.9685 11.2575 16.012 11.5814C16.0512 11.8725 16.0512 12.2284 16.0511 12.6076C16.0511 12.622 16.0511 12.6364 16.0511 12.6508C16.0511 12.6652 16.0511 12.6796 16.0511 12.694C16.0512 13.0732 16.0512 13.4291 16.012 13.7202C15.9685 14.0441 15.8645 14.3974 15.5726 14.6893C15.2807 14.9812 14.9274 15.0852 14.6035 15.1287C14.3124 15.1679 13.9565 15.1679 13.5773 15.1678C13.5629 15.1678 13.5485 15.1678 13.5341 15.1678C13.5197 15.1678 13.5053 15.1678 13.4909 15.1678C13.1117 15.1679 12.7558 15.1679 12.4647 15.1287C12.1408 15.0852 11.7875 14.9812 11.4956 14.6893C11.2037 14.3974 11.0997 14.0441 11.0562 13.7202C11.017 13.4291 11.017 13.0732 11.0171 12.694C11.0171 12.6796 11.0171 12.6652 11.0171 12.6508C11.0171 12.6364 11.0171 12.622 11.0171 12.6076C11.017 12.2284 11.017 11.8725 11.0562 11.5814C11.0997 11.2575 11.2037 10.9042 11.4956 10.6123C11.7875 10.3204 12.1408 10.2164 12.4647 10.1729C12.7558 10.1337 13.1117 10.1337 13.4909 10.1338Z" fill="#444444"/>
</svg>
