<svg width="22" height="22" viewBox="0 0 22 22" fill="none" xmlns="http://www.w3.org/2000/svg">
<path d="M11 0.166687C8.16195 0.174329 5.43979 1.29314 3.41664 3.28344V1.25002C3.41664 0.962703 3.3025 0.687152 3.09934 0.483988C2.89617 0.280824 2.62062 0.166687 2.3333 0.166687C2.04599 0.166687 1.77044 0.280824 1.56727 0.483988C1.36411 0.687152 1.24997 0.962703 1.24997 1.25002V6.12502C1.24997 6.41234 1.36411 6.68789 1.56727 6.89105C1.77044 7.09422 2.04599 7.20835 2.3333 7.20835H7.2083C7.49562 7.20835 7.77117 7.09422 7.97434 6.89105C8.1775 6.68789 8.29164 6.41234 8.29164 6.12502C8.29164 5.8377 8.1775 5.56215 7.97434 5.35899C7.77117 5.15582 7.49562 5.04169 7.2083 5.04169H4.73614C5.92587 3.78176 7.46678 2.90846 9.15895 2.53508C10.8511 2.1617 12.6165 2.30548 14.2259 2.94777C15.8354 3.59005 17.2146 4.7012 18.1848 6.13704C19.155 7.57288 19.6712 9.26715 19.6666 11C19.6666 11.2873 19.7808 11.5629 19.9839 11.7661C20.1871 11.9692 20.4627 12.0834 20.75 12.0834C21.0373 12.0834 21.3128 11.9692 21.516 11.7661C21.7192 11.5629 21.8333 11.2873 21.8333 11C21.8304 8.12772 20.6881 5.37389 18.6571 3.34286C16.6261 1.31184 13.8723 0.169555 11 0.166687ZM19.6547 14.7917H14.7797C14.4924 14.7917 14.2169 14.9058 14.0137 15.109C13.8105 15.3122 13.6964 15.5877 13.6964 15.875C13.6964 16.1623 13.8105 16.4379 14.0137 16.6411C14.2169 16.8442 14.4924 16.9584 14.7797 16.9584H17.2638C16.0741 18.2183 14.5332 19.0916 12.841 19.465C11.1488 19.8383 9.38348 19.6946 7.77403 19.0523C6.16458 18.41 4.78529 17.2988 3.81513 15.863C2.84496 14.4272 2.32869 12.7329 2.3333 11C2.3333 10.7127 2.21917 10.4372 2.016 10.234C1.81284 10.0308 1.53729 9.91669 1.24997 9.91669C0.962652 9.91669 0.687102 10.0308 0.483938 10.234C0.280773 10.4372 0.166637 10.7127 0.166637 11C0.163614 13.1334 0.791434 15.22 1.97115 16.9976C3.15086 18.7751 4.8298 20.1641 6.79684 20.99C8.76387 21.8159 10.9312 22.0417 13.0262 21.6392C15.1213 21.2366 17.0505 20.2235 18.5714 18.7274V20.75C18.5714 21.0373 18.6855 21.3129 18.8887 21.5161C19.0919 21.7192 19.3674 21.8334 19.6547 21.8334C19.942 21.8334 20.2176 21.7192 20.4208 21.5161C20.6239 21.3129 20.7381 21.0373 20.7381 20.75V15.875C20.7381 15.5877 20.6239 15.3122 20.4208 15.109C20.2176 14.9058 19.942 14.7917 19.6547 14.7917Z" fill="#9D9D9D"/>
</svg>
