<svg width="14" height="16" viewBox="0 0 14 16" fill="none" xmlns="http://www.w3.org/2000/svg">
<path fill-rule="evenodd" clip-rule="evenodd" d="M9.75343 0.898503C10.0463 0.60561 10.5212 0.60561 10.8141 0.898503L13.2784 3.36279C13.5713 3.65568 13.5713 4.13055 13.2784 4.42345C12.9855 4.71634 12.5106 4.71634 12.2177 4.42345L11.0338 3.23949V9.64311C11.0338 10.0573 10.698 10.3931 10.2838 10.3931C9.86955 10.3931 9.53376 10.0573 9.53376 9.64311V3.23949L8.34981 4.42345C8.05691 4.71634 7.58204 4.71634 7.28915 4.42345C6.99625 4.13055 6.99625 3.65568 7.28915 3.36279L9.75343 0.898503ZM3.71233 5.6074C4.12655 5.6074 4.46233 5.94319 4.46233 6.3574V12.761L5.64629 11.5771C5.93918 11.2842 6.41406 11.2842 6.70695 11.5771C6.99984 11.87 6.99984 12.3448 6.70695 12.6377L4.24266 15.102C3.94977 15.3949 3.4749 15.3949 3.182 15.102L0.717717 12.6377C0.424824 12.3448 0.424824 11.87 0.717717 11.5771C1.01061 11.2842 1.48548 11.2842 1.77838 11.5771L2.96233 12.761V6.3574C2.96233 5.94319 3.29812 5.6074 3.71233 5.6074Z" fill="#9D9D9D"/>
</svg>
