<svg width="17" height="18" viewBox="0 0 17 18" fill="none" xmlns="http://www.w3.org/2000/svg">
<rect width="17" height="18" fill="#EBEBEB"/>
<path d="M-375 -2443C-375 -2444.1 -374.105 -2445 -373 -2445H32020C32021.1 -2445 32022 -2444.1 32022 -2443V8648C32022 8649.1 32021.1 8650 32020 8650H-372.999C-374.104 8650 -375 8649.1 -375 8648V-2443Z" fill="#E5E5E5"/>
<path d="M-373 -2435H32020V-2455H-373V-2435ZM32012 -2443V8648H32032V-2443H32012ZM32020 8640H-372.999V8660H32020V8640ZM-365 8648V-2443H-385V8648H-365ZM-372.999 8640C-368.585 8640 -365 8643.58 -365 8648H-385C-385 8654.63 -379.623 8660 -372.999 8660V8640ZM32012 8648C32012 8643.58 32015.6 8640 32020 8640V8660C32026.6 8660 32032 8654.63 32032 8648H32012ZM32020 -2435C32015.6 -2435 32012 -2438.58 32012 -2443H32032C32032 -2449.63 32026.6 -2455 32020 -2455V-2435ZM-373 -2455C-379.626 -2455 -385 -2449.63 -385 -2443H-365C-365 -2438.58 -368.583 -2435 -373 -2435V-2455Z" fill="#A4A4A4"/>
<g clip-path="url(#clip0_119_47)">
<rect width="1512" height="982" transform="translate(-62 -688)" fill="white"/>
<rect width="270" height="982" transform="translate(-62 -688)" fill="#F1F4F8"/>
<rect x="-42" y="-21" width="230" height="302.094" rx="8" fill="#DBE5F1"/>
<rect x="-31.5" y="-12.5" width="209" height="43" rx="9.5" fill="#F1F4F8"/>
<rect x="-31.5" y="-12.5" width="209" height="43" rx="9.5" stroke="#E2E4E8"/>
<path d="M0.5 8.11113C0.5 12.5556 4.05556 16.1111 8.5 16.1111C12.8889 16.1111 16.5 12.5556 16.5 8.11113V9.88891C16.5 14.3334 12.9444 17.8889 8.5 17.8889C4.11111 17.8889 0.5 14.3334 0.5 9.88891V8.11113Z" fill="#FF7C02"/>
<path d="M0.5 8.11113C0.5 12.5556 4.05556 16.1111 8.5 16.1111C12.8889 16.1111 16.5 12.5556 16.5 8.11113V9.88891C16.5 14.3334 12.9444 17.8889 8.5 17.8889C4.11111 17.8889 0.5 14.3334 0.5 9.88891V8.11113Z" fill="#FF7C02"/>
<path d="M8.49997 16.1111C6.88886 16.1111 5.33331 15.6111 4.11108 14.7778V16.5556C5.38886 17.3889 6.88886 17.8889 8.49997 17.8889C12.8889 17.8889 16.5 14.3334 16.5 9.88891V8.11113C16.5 12.5 12.8889 16.1111 8.49997 16.1111Z" fill="#FF7C02"/>
<path d="M9.88892 15.9445V17.7223C13.6111 17.0556 16.5 13.7778 16.5 9.83337V8.05559C16.5 12.0556 13.6667 15.2778 9.88892 15.9445Z" fill="#FF7C02"/>
<path d="M14.3889 13.5V15.2778C15.7222 13.8334 16.5 11.9445 16.5 9.88891V8.11113C16.5 10.1667 15.6667 12.0556 14.3889 13.5Z" fill="#FF7C02"/>
<path d="M16.5 8.11115C16.5 12.5556 12.9444 16.1111 8.5 16.1111C4.49999 16.1111 1.22222 13.2223 0.611106 9.38892C-0.166672 4.61115 3.49999 0.111145 8.5 0.111145C11.8889 0.111145 14.8333 2.22226 15.9444 5.27781C16.3333 6.11115 16.5 7.11115 16.5 8.11115Z" fill="#F9CF6B"/>
<path opacity="0.4" d="M2.44434 12.1667C4.05545 14.1111 6.27767 15.1111 8.49989 15.1111C10.7221 15.1111 12.9443 14.1111 14.5554 12.1111C13.4443 14.1111 11.2221 15.5556 8.49989 15.6111C5.83322 15.6111 3.55545 14.1111 2.44434 12.1667Z" fill="white"/>
<path opacity="0.2" d="M15.2777 5.16668C13.8888 2.50001 11.2777 0.944458 8.49995 0.944458C5.72217 0.944458 3.11106 2.50001 1.72217 5.11112C2.61106 2.55557 5.27772 0.500014 8.49995 0.444458C11.7222 0.500014 14.3333 2.55557 15.2777 5.16668Z" fill="white"/>
<path opacity="0.4" d="M2.44434 12.1667C4.05545 14.1111 6.27767 15.1111 8.49989 15.1111C10.7221 15.1111 12.9443 14.1111 14.5554 12.1111C13.4443 14.1111 11.2221 15.5556 8.49989 15.6111C5.83322 15.6111 3.55545 14.1111 2.44434 12.1667Z" fill="white"/>
<path d="M14.5554 8.11113C14.5554 11.4445 11.8332 14.1667 8.49989 14.1667C5.16656 14.1667 2.44434 11.4445 2.44434 8.11113C2.44434 4.77779 5.16656 2.05557 8.49989 2.05557C11.8332 2.05557 14.5554 4.77779 14.5554 8.11113Z" fill="#FF7C02"/>
<path d="M10.5001 9.00005L10.8334 11.1112C10.889 11.4445 10.5556 11.6667 10.2779 11.5556L8.38897 10.5556C8.27786 10.5001 8.11119 10.5001 8.00008 10.5556L6.11119 11.5556C5.83341 11.7223 5.50008 11.4445 5.55564 11.1112L5.88897 9.00005C5.88897 8.88894 5.88897 8.72227 5.77786 8.66672L4.2223 7.16672C4.00008 6.94449 4.11119 6.55561 4.44452 6.50005L6.55564 6.16672C6.66675 6.16672 6.77786 6.05561 6.83341 5.9445L7.83341 4.00005C8.00008 3.72227 8.38897 3.72227 8.55564 4.00005L9.50008 5.9445C9.55564 6.05561 9.66675 6.16672 9.77786 6.16672L11.889 6.50005C12.2223 6.55561 12.3334 6.94449 12.1112 7.16672L10.5556 8.66672C10.5001 8.72227 10.4445 8.88894 10.5001 9.00005Z" fill="#FF7C02"/>
<path d="M13.9445 10.7222C15.5556 6.88891 12.7222 2.55557 8.50003 2.55557C4.33336 2.55557 1.44447 6.77779 3.00003 10.6667C1.16669 6.66668 4.05558 2.05557 8.50003 2.05557C13 2.05557 15.8889 6.7778 13.9445 10.7222Z" fill="#FF7C02"/>
<path d="M10.8333 9.33336L11.1667 11.4445C11.2222 11.7778 10.8889 12 10.6111 11.8889L8.72222 10.8889C8.61111 10.8334 8.44444 10.8334 8.33333 10.8889L6.44444 11.8889C6.16667 12.0556 5.83333 11.7778 5.88889 11.4445L6.22222 9.33336C6.22222 9.22225 6.22222 9.05559 6.11111 9.00003L4.55555 7.50003C4.33333 7.27781 4.44444 6.88892 4.77778 6.83336L6.88889 6.50003C7 6.50003 7.11111 6.38892 7.16667 6.27781L8.11111 4.33336C8.27778 4.05559 8.66667 4.05559 8.83333 4.33336L9.77778 6.27781C9.83333 6.38892 9.94444 6.50003 10.0556 6.50003L12.1667 6.83336C12.5 6.88892 12.6111 7.27781 12.3889 7.50003L10.9444 9.00003C10.8333 9.05559 10.7778 9.22225 10.8333 9.33336Z" fill="#F9CF6B"/>
<path opacity="0.5" d="M4.94447 7.5556C4.72225 7.33338 4.83336 7.00004 5.16669 6.94449L7.05558 6.66671C7.16669 6.66671 7.2778 6.5556 7.33336 6.50004L8.16669 4.77782C8.2778 4.50004 8.66669 4.50004 8.7778 4.77782L9.61114 6.50004C9.66669 6.61116 9.7778 6.66671 9.88892 6.66671L11.7778 6.94449C12.0556 7.00004 12.1667 7.33338 12 7.5556C12 7.5556 10.7778 8.88893 8.38891 8.88893C6.55558 8.88893 4.94447 7.5556 4.94447 7.5556Z" fill="white"/>
<path opacity="0.7" d="M8.55552 5.94445C8.38885 6.33334 8.11107 6.61111 7.99996 6.55556C7.88885 6.5 7.8333 6.11111 7.99996 5.72222C8.16663 5.33334 8.44441 5.05556 8.55552 5.11111C8.66663 5.16667 8.72219 5.55556 8.55552 5.94445Z" fill="white"/>
<path d="M5.44447 4.16669C5.2778 4.16669 5.16669 4.22225 5.05558 4.2778C5.11114 4.33336 5.55558 4.7778 5.50003 4.83336C5.44447 4.88891 5.00003 4.44447 4.94447 4.38891C4.88892 4.50002 4.83336 4.61114 4.83336 4.7778C4.83336 5.38891 4.77781 5.7778 4.66669 5.7778C4.61114 5.7778 4.55558 5.38891 4.50003 4.7778C4.50003 4.61114 4.44447 4.50002 4.38892 4.38891C4.33336 4.44447 3.88892 4.88891 3.83336 4.83336C3.77781 4.7778 4.22225 4.33336 4.2778 4.2778C4.16669 4.22225 4.05558 4.16669 3.88892 4.16669C2.55558 4.11114 2.55558 3.94447 3.88892 3.88891C4.00003 3.88891 4.16669 3.83336 4.2778 3.7778C4.22225 3.72225 3.77781 3.2778 3.83336 3.22225C3.88892 3.16669 4.33336 3.61113 4.38892 3.66669C4.44447 3.55558 4.50003 3.44447 4.50003 3.2778C4.55558 1.94447 4.72225 1.94447 4.77781 3.2778C4.77781 3.38891 4.83336 3.55558 4.88892 3.66669C4.94447 3.61113 5.38892 3.16669 5.44447 3.22225C5.50003 3.2778 5.33336 3.50002 5.05558 3.7778V3.83336C5.16669 3.88891 5.2778 3.94447 5.44447 3.94447C6.05558 3.94447 6.44447 4.00002 6.44447 4.11114C6.44447 4.11114 6.05558 4.16669 5.44447 4.16669Z" fill="white"/>
<path opacity="0.2" d="M15.2777 5.16668C13.8888 2.50001 11.2777 0.944458 8.49995 0.944458C5.72217 0.944458 3.11106 2.50001 1.72217 5.11112C2.61106 2.55557 5.27772 0.500014 8.49995 0.444458C11.7222 0.500014 14.3333 2.55557 15.2777 5.16668Z" fill="white"/>
</g>
<defs>
<clipPath id="clip0_119_47">
<rect width="1512" height="982" fill="white" transform="translate(-62 -688)"/>
</clipPath>
</defs>
</svg>
