<svg width="43" height="38" viewBox="0 0 43 38" fill="none" xmlns="http://www.w3.org/2000/svg">
<path d="M42.5 22.5V34.5C42.5 35.2956 42.1839 36.0587 41.6213 36.6213C41.0587 37.1839 40.2957 37.5 39.5 37.5H3.5C2.70435 37.5 1.94129 37.1839 1.37868 36.6213C0.81607 36.0587 0.5 35.2956 0.5 34.5V22.5C0.5 21.7043 0.81607 20.9412 1.37868 20.3786C1.94129 19.816 2.70435 19.5 3.5 19.5H12.5C12.8978 19.5 13.2794 19.658 13.5607 19.9393C13.842 20.2206 14 20.6021 14 21C14 21.3978 13.842 21.7793 13.5607 22.0606C13.2794 22.3419 12.8978 22.5 12.5 22.5H3.5V34.5H39.5V22.5H30.5C30.1022 22.5 29.7206 22.3419 29.4393 22.0606C29.158 21.7793 29 21.3978 29 21C29 20.6021 29.158 20.2206 29.4393 19.9393C29.7206 19.658 30.1022 19.5 30.5 19.5H39.5C40.2957 19.5 41.0587 19.816 41.6213 20.3786C42.1839 20.9412 42.5 21.7043 42.5 22.5ZM13.5613 11.5612L20 5.12058V21C20 21.3978 20.158 21.7793 20.4393 22.0606C20.7206 22.3419 21.1022 22.5 21.5 22.5C21.8978 22.5 22.2794 22.3419 22.5607 22.0606C22.842 21.7793 23 21.3978 23 21V5.12058L29.4387 11.5612C29.7202 11.8427 30.102 12.0008 30.5 12.0008C30.898 12.0008 31.2798 11.8427 31.5613 11.5612C31.8427 11.2797 32.0008 10.898 32.0008 10.5C32.0008 10.1019 31.8427 9.72017 31.5613 9.43871L22.5613 0.438709C22.4219 0.299245 22.2565 0.188606 22.0744 0.11312C21.8923 0.0376331 21.6971 -0.0012207 21.5 -0.0012207C21.3029 -0.0012207 21.1077 0.0376331 20.9256 0.11312C20.7435 0.188606 20.5781 0.299245 20.4387 0.438709L11.4387 9.43871C11.1573 9.72017 10.9992 10.1019 10.9992 10.5C10.9992 10.898 11.1573 11.2797 11.4388 11.5612C11.7202 11.8427 12.102 12.0008 12.5 12.0008C12.898 12.0008 13.2798 11.8427 13.5613 11.5612ZM35 28.5C35 28.055 34.868 27.6199 34.6208 27.2499C34.3736 26.8799 34.0222 26.5915 33.611 26.4212C33.1999 26.2509 32.7475 26.2064 32.311 26.2932C31.8746 26.38 31.4737 26.5943 31.159 26.909C30.8443 27.2236 30.63 27.6245 30.5432 28.061C30.4564 28.4975 30.501 28.9499 30.6713 29.361C30.8416 29.7721 31.13 30.1235 31.5 30.3708C31.87 30.618 32.305 30.75 32.75 30.75C33.3467 30.75 33.919 30.5129 34.341 30.0909C34.7629 29.669 35 29.0967 35 28.5Z" fill="#9D9D9D"/>
</svg>
