<svg width="64" height="64" viewBox="0 0 64 64" fill="none" xmlns="http://www.w3.org/2000/svg">
<rect width="64" height="64" rx="32" fill="#FF7C02"/>
<path d="M47.9223 23.2126C47.9223 25.3406 47.1712 27.1807 45.6691 28.7328C44.167 30.26 41.9764 31.3615 39.0974 32.0374C40.6496 32.463 41.8262 33.164 42.6273 34.1404C43.4285 35.0917 43.829 36.1932 43.829 37.445C43.829 39.4228 43.2031 41.1376 41.9514 42.5897C40.7247 44.0417 38.9221 45.1683 36.5438 45.9694C34.1655 46.7455 31.299 47.1335 27.9443 47.1335C26.6925 47.1335 25.6911 47.096 24.9401 47.0209C24.915 47.7218 24.6146 48.2476 24.0388 48.5981C23.463 48.9486 22.7244 49.1238 21.8232 49.1238C20.9219 49.1238 20.296 48.9235 19.9456 48.523C19.6201 48.1224 19.4824 47.5341 19.5325 46.758C19.7578 43.2531 20.1959 39.5855 20.8468 35.7551C21.4977 31.8997 22.3239 28.1821 23.3253 24.6021C23.5005 23.9762 23.851 23.5381 24.3768 23.2877C24.9025 23.0374 25.591 22.9122 26.4422 22.9122C27.9693 22.9122 28.7329 23.3378 28.7329 24.189C28.7329 24.5395 28.6578 24.94 28.5076 25.3907C27.8566 27.3434 27.2057 29.9971 26.5548 33.3518C25.9039 36.6814 25.4408 39.8609 25.1654 42.8901C26.3671 42.9902 27.3434 43.0403 28.0945 43.0403C31.5994 43.0403 34.1655 42.5396 35.7928 41.5382C37.4451 40.5118 38.2712 39.21 38.2712 37.6328C38.2712 36.5312 37.7956 35.6049 36.8442 34.8539C35.9179 34.1028 34.3532 33.6897 32.1502 33.6146C31.6495 33.5896 31.299 33.4644 31.0987 33.2391C30.8984 33.0138 30.7983 32.6508 30.7983 32.1501C30.7983 31.4241 30.9485 30.8358 31.2489 30.3851C31.5493 29.9345 32.1001 29.6967 32.9012 29.6716C34.6787 29.6216 36.2809 29.3587 37.7079 28.883C39.16 28.4074 40.2991 27.7439 41.1252 26.8928C41.9514 26.0165 42.3645 25.0026 42.3645 23.851C42.3645 22.399 41.651 21.2599 40.224 20.4337C38.797 19.5825 36.6064 19.157 33.6523 19.157C30.9735 19.157 28.3824 19.5074 25.8789 20.2084C23.3754 20.8844 21.2474 21.7481 19.4949 22.7995C18.6938 23.2752 18.0179 23.513 17.4671 23.513C17.0165 23.513 16.666 23.3628 16.4156 23.0624C16.1903 22.737 16.0776 22.3364 16.0776 21.8607C16.0776 21.2349 16.2028 20.6966 16.4532 20.246C16.7285 19.7953 17.3669 19.2821 18.3683 18.7063C20.4713 17.5046 22.9372 16.5658 25.7662 15.8899C28.5952 15.2139 31.4867 14.876 34.4409 14.876C38.9722 14.876 42.3519 15.6395 44.5801 17.1667C46.8082 18.6938 47.9223 20.7091 47.9223 23.2126Z" fill="white"/>
<path d="M48.3422 48.9848C47.2406 48.9848 46.402 48.6843 45.8262 48.0835C45.2754 47.4827 45 46.6941 45 45.7177C45 44.5911 45.3129 43.6899 45.9388 43.0139C46.5897 42.338 47.491 42 48.6426 42C49.7441 42 50.5703 42.2754 51.1211 42.8262C51.6969 43.3519 51.9848 44.1405 51.9848 45.192C51.9848 46.3436 51.6593 47.2699 51.0084 47.9708C50.3575 48.6468 49.4688 48.9848 48.3422 48.9848Z" fill="white"/>
</svg>
